<?xml version="1.0" encoding="UTF-8" standalone="no"?>
<svg xmlns="http://www.w3.org/2000/svg" xmlns:xlink="http://www.w3.org/1999/xlink" version="1.1" viewBox="0,0,89,131" width="89" height="131">
<def>
	<path id="carreau" d="M37,58a20,20 0,0,0 15,0 a20,20 0,0,0 0,15 a20,20 0,0,0 -15,0 a20,20 0,0,0 0,-15z" fill="#f00" transform="rotate(45,44.5,65.5)"/>
	<circle id="point" fill="#f00" r="0.5"/>
</def>
<rect x="2" y="2" width="85" height="127" fill="#000"/>
<rect x="3" y="3" width="83" height="125" fill="#fff"/>
<use xlink:href="#carreau" transform="translate(0,0)"/>
<path d="m 40.5,33.625 0,4.875 c -0.25,0.333333 -0.333333,1 -0.75,1 -0.416667,0 -0.5,-0.666667 -0.75,-1 l 0,-1 -3,0 0,-2.5 c 0,-1.730484 2.145007,-2.013489 3,-1.5 l 0,-1 m 5,1 0,1.5 2,0 c 3.029795,0 2.082187,1.898514 3.160311,2.5 l -4.660311,0 0,1.5 c -0.416667,0.333333 -0.716406,1 -1.25,1 -0.533594,0 -0.833333,-0.666667 -1.25,-1 l 0,-8.5 m 8.5,1.5 0,3.5 2.5,0 c 0.416666,0 0.75,0.255208 0.75,0.75 0,0.494792 -0.333334,0.75 -0.75,0.75 l -2,0 0,2.5 m 2.25,0.283225 0,4.716775 -1.75,0 0,-1.5 -5.25,0 c 0,-1.749662 2.097834,-2.31836 2.75,-3.5 l 0,6 c -0.701606,-0.701606 -1.042163,-1 -2.5,-1 0,3.185 -3.037037,2.763533 -4.5,4.5 0.833333,0.985336 1.947917,1.109184 2.5,2 0.552083,-0.890816 1.666667,-1.014664 2.5,-2 -1.462963,-1.736467 -4.5,-1.315 -4.5,-4.5 -1.457837,0 -1.798394,0.298394 -2.5,1 l 0,1.5 m 0.5,-6 0,2 m 2,-2 0,2 m -4,0 6.5,0 0,-2.5 m 1.5,-17 c -0.06639,-1.396091 -1.667687,-1.706726 -2,-2.5 -0.332313,0.793274 -1.933608,1.103909 -2,2.5 m 13,18 0,-7.5 c 0,-2.183062 -2.51393,-3.283608 -4.09375,-2.5 -0.333166,-0.776388 -0.772654,-1.5 -2.40611,-1.500002 1.41e-4,-4.624947 -7.604911,-8.679671 -8.499859,-5.000002 4.065382,0 6.030673,2.740098 6.5,3.5 -1.285555,0.129563 -1.927014,0.936625 -2.500141,1.500002 C 43.927014,29.436625 43.285555,28.629563 42,28.5 42.469327,27.740098 44.434618,25 48.5,25 47.605052,21.320331 40,25.375055 40,30 c -1.633596,0 -2.192072,0.679553 -2.5,2 -1.70482,-1.174233 -4,-0.183062 -4,2 l 0,8 c 0.772965,-1.444895 2.25,-1.935096 2.25,-0.5 l 0,3 2.75,0 0,-4.5"
	style="fill:none;stroke:#f00;stroke-width:0.75;stroke-miterlimit:20"/>
<use xlink:href="#point" transform="translate(52.5,38.5)"/>
<use xlink:href="#point" transform="translate(54,38.5)"/>
<use xlink:href="#point" transform="translate(46.5,39.5)"/>
<use xlink:href="#point" transform="translate(46.5,33)"/>
<use xlink:href="#point" transform="translate(44,32)"/>
<use xlink:href="#point" transform="translate(40.5,32)"/>
</svg>
