<?xml version="1.0" encoding="UTF-8" standalone="no"?>
<svg xmlns="http://www.w3.org/2000/svg" xmlns:xlink="http://www.w3.org/1999/xlink" version="1.1" width="89" height="131">
<def>
	<path id="pique" d="m 44.5,55 c 2.5,6.5 9,7 9,12 c 0,6 -7.5,5 -9,-1 c -1.5,6 -9,7 -9,1 c 0,-5 6.5,-5.5 9,-12z m-0.5,9.5 h1 c 0,8 1.5,8.5 4,11 c -2.5,-1 -6.5,-1 -9,0 c 2.5,-2.5 4,-3 4,-11z" fill="#000"/>
</def>
<rect x="2" y="2" width="85" height="127" fill="#000"/>
<rect x="3" y="3" width="83" height="125" fill="#fff"/>
<use xlink:href="#pique" transform="translate(-21,-42)"/>
<use xlink:href="#pique" transform="translate(-21,42)rotate(180,44.5,65.5)"/>
<use xlink:href="#pique" transform="translate(21,-42)"/>
<use xlink:href="#pique" transform="translate(21,42)rotate(180,44.5,65.5)"/>
<use xlink:href="#pique" transform="translate(0,0)"/>
</svg>