<?xml version="1.0" encoding="UTF-8" standalone="no"?>
<svg xmlns="http://www.w3.org/2000/svg" xmlns:xlink="http://www.w3.org/1999/xlink" version="1.1" width="89" height="131">
<def>
	<path id="carreau" d="M37,58a20,20 0,0,0 15,0 a20,20 0,0,0 0,15 a20,20 0,0,0 -15,0 a20,20 0,0,0 0,-15z" fill="#f00" transform="rotate(45,44.5,65.5)"/>
	<g id="circle">
		<circle cx="61" cy="40" r="1" fill="#fff"/>
		<circle cx="61" cy="40" r="0.35" fill="#000"/>
	</g>
</def>
<rect x="2" y="2" width="85" height="127" fill="#000"/>
<rect x="3" y="3" width="83" height="125" fill="#fff"/>
<rect x="8.5" y="8.5" width="72" height="114" stroke-width="1" stroke="#000" fill="none"/>
<use xlink:href="#carreau" transform="translate(-24,-45)"/>
<use xlink:href="#carreau" transform="translate(24,45)"/>
<g id="upperhalf">
	<g id="colors">
		<path fill="#ff0000" d="m 28.14064,88.186894 -1.43631,2.386486 -0.408797,0.386699 -1.502602,-2.375437 -0.82864,-1.458408 z"/>
		<path fill="#ff0000" d="m 34.957591,77.281982 5.590563,-8.662058 0,-5.944117 0.0442,-4.220543 -0.232974,-3.681826 -0.783492,-6.549126 -0.673962,-3.668116 -0.552427,-2.04398 -2.240119,-2.684091 -2.65625,-1.921875 -2,-1.359375 -0.953125,2.75 -2.0625,5.390625 -2.561811,5.481356 0.861786,0.552427 1.37002,0.552428 2.80633,0.331456 2.938912,5.678951 3.380854,1.126952 -0.685009,4.861359 -1.038563,5.61266 -1.104855,5.303301 0.04419,0.994369 0.06629,1.126951 z"/>
		<path fill="#ff0000" d="m 13.125,47.6875 2.5,-0.6875 1.40625,-0.5 2.625,0.0625 0.341614,-0.371119 0.90598,-2.209709 1.657282,-2.872621 2.452776,-4.220544 1.502602,-2.143417 0.662913,-1.082758 -0.441942,-0.552427 -1.469456,-0.419845 -1.491554,0.287263 -2.695844,1.878252 -1.303728,2.519068 -3.933282,3.955378 -1.568893,1.679379 -0.928078,2.452777 z"/>
		<path fill="#ff0000" d="M 51.875,50.9375 57.65625,41.75 56.125,39.375 l -0.252516,-0.641386 0.08064,-3.280489 -1.265625,0.53125 -2.015625,2.4375 -0.90625,1.125 L 50.4375,41.5 l -0.640625,2.484375 -0.4375,0.3125 -0.84375,1.1875 0.359375,0.75 1.265625,1.71875 z"/>
		<path fill="#ff0000" d="M 49.8125,31.375 49.5,32.3125 47.75,35.96875 41.25,36.15625 40.5625,36 l -0.699355,-0.72458 -1.171146,-1.392117 -4.463611,-4.198446 0.795495,-0.397748 1.237437,0.287262 2.872621,2.474874 2.099223,2.187612 1.171146,0.243067 4.441514,-0.243067 0.883884,-1.303729 0.795495,-1.679378 z"/>
		<path fill="#5eaf51" d="m 28.864407,16.860699 1.595868,0.555085 2.740731,2.289724 5.20392,-2.706038 4.683527,-1.457097 8.43035,-1.075477 2.150953,-3.22643 -4.752913,-2.2550319 -3.102224,0.249338 -9.578788,1.3352749 -0.953257,0.470935 -2.888245,2.844458 z"/>
		<path fill="#5eaf51" d="m 24.88132,49.68272 -4.993942,-2.850524 -2.496971,-0.397748 -4.353126,1.524699 -3.5576307,2.43068 -1.1490485,2.099223 -0.5745243,3.159884 -0.1104854,1.723573 0.1546796,10.407727 0.9059805,6.496544 0.7733981,2.717942 0.5047247,0.864655 1.1875,-6.28125 2.53125,-9.6875 2.265625,-5.53125 1.75,-2.46875 2.609375,-2.046875 3.006399,-1.564408 1.458407,-0.265165 z"/>
		<path fill="#5eaf51" d="M 37.0625,58.703125 36.03125,66.109375 34.21875,74.5 32,76.890625 28.609375,78.125 l -2.375,-0.34375 -1.4375,-1.203125 -0.890625,-2.09375 0.15625,-1.3125 L 30.875,59.1875 z"/>
		<path fill="#5eaf51" d="m 50.049902,53.85907 1.767767,-2.80633 -3.380169,-5.58399 1.40625,-1.9375 0.6875,-2.40625 2.65625,-3.5 1.53125,-1.75 3.1875,-1.40625 -0.875,-1.0625 -1.75,-0.9375 L 51,31.3125 l -1.15625,0.375 -2.875,6.25 -1.25,3.84375 L 44.375,40.5 38.625708,33.971691 33.4375,29.125 31.84375,30.6875 30.25,30.625 26.375,32.71875 35.9375,39.5 l 8.035703,7.663652 5.08233,5.259107 z"/>
		<path fill="#e9f00f" d="m 57.75,41.75 2.46875,-3.96875 -2.28125,-2.96875 -1,0.125 -0.90625,0.46875 L 56,38.96875 z"/>
		<path fill="#e9f00f" d="M 49.9375,54 40.614446,68.642021 40.65864,57.549283 40.150407,51.251613 38.559417,42.368585 39.3125,42.78125 43.625,47 l 5.253756,5.400662 z"/>
		<path fill="#e9f00f" d="m 40.890625,36.203125 3.9375,4.625 0.828125,0.828125 1.921875,-5.578125 z"/>
		<path fill="#e9f00f" d="M 25.6875,50.21875 27.90625,46 30,40.59375 31.40625,36.375 29.764776,35.220177 27.267805,33.651284 24.21875,38.3125 l -3.138129,5.38191 -1.237437,2.938912 0.640816,0.419845 4.308931,2.386485 z"/>
		<path fill="#e9f00f" d="M 15.09375,85.75 14.75,84.34375 l 0.3125,-4.53125 1.09375,-6.21875 1,-4.0625 1.875,-5.40625 1.740012,-3.835678 1.325825,-2.320194 1.149048,1.524699 1.392117,-0.15468 -0.552427,-1.370019 1.038563,-1.104854 1.414213,-0.950175 1.367649,0.148401 0.34375,-4.5 -3,-1.46875 -0.998447,0.07511 -0.961223,0.209922 -2.63408,1.355597 -1.546875,1.09375 -1.381987,1.108284 -1.121427,1.491554 -0.972272,1.723573 -0.585573,1.43631 -1.414213,3.64602 -1.546796,6.032504 -1.082758,4.507806 -0.972272,5.303301 0.353554,1.259534 0.950175,1.922446 0.419844,0.773398 1.149049,1.834059 1.325825,1.392116 z"/>
		<path fill="#e9f00f" d="m 34.913397,77.259885 -6.717514,10.871766 -3.756505,-1.06066 -4.905553,-1.546796 -1.237437,-1.06066 0.574524,-0.795495 1.414214,-3.137786 2.474873,-5.126525 L 23.8125,74.328125 24.28125,75.75 25.015625,76.984375 26.875,78.09375 29.796875,78 32.140625,76.953125 34.375,74.53125 34.35937,76.171875 z"/>
	</g>
	<path id="outline" d="M 48,8.8125 C 47.45799,8.81107 46.97191,8.9293224 46.4375,8.96875 45.931117,9.006277 45.372833,9.0342686 44.875,9.125 c -0.998516,0.181937 -1.997684,0.3554884 -3,0.53125 -1.073571,0.1890625 -2.138055,0.359493 -3.21875,0.46875 -0.477882,0.0475 -0.959143,0.237174 -1.4375,0.25 -0.581438,0.01473 -1.105656,-0.03807 -1.59375,0.3125 -0.887121,0.637491 -1.57827,1.560627 -2.40625,2.28125 -0.756487,0.658869 -1.500537,1.335534 -2.28125,1.96875 -0.450805,0.36625 -0.902819,0.755053 -1.375,1.09375 -0.34701,0.248442 -1.062025,0.599242 -1.0625,1.09375 0.465768,0.08408 1.024698,0.09673 1.4375,0.34375 0.494745,0.296895 0.935358,0.622825 1.375,1 0.412089,0.354373 0.829462,0.745925 1.21875,1.125 0.118046,0.114958 0.476011,0.404789 0.5,0.5625 0.04323,0.283118 0.0668,0.563481 0.125,0.84375 0.124696,0.600914 0.246502,1.051366 0.59375,1.5625 0.258655,0.380025 0.741924,0.802893 0.75,1.28125 0.0071,0.428953 0.08011,0.453039 -0.3125,0.625 -0.270768,0.118283 -0.488326,-0.104436 -0.65625,-0.3125 -0.12517,-0.15581 -0.295499,-0.415649 -0.5,-0.4375 -0.328009,-0.0342 -0.457179,0.31226 -0.59375,0.53125 -0.153672,0.246541 -0.213762,0.44883 -0.21875,0.75 -0.004,0.238941 0.07835,0.592561 -0.0625,0.8125 -0.126121,0.196663 -0.450664,0.25709 -0.625,0.40625 -0.270531,0.230865 -0.450766,0.367804 -0.59375,0.6875 -0.212339,0.473606 -0.217421,1.116348 -0.84375,1.15625 -0.49522,0.03135 -1.133075,0.258884 -1.125,0.875 0.479069,-0.09928 0.839708,-0.151841 1.28125,0.09375 0.480256,0.267443 0.856638,0.348501 1.40625,0.34375 -0.308058,0.555312 -0.746467,0.289326 -1.25,0.28125 -0.297132,-0.0048 -0.522018,0.02392 -0.8125,0.09375 -0.26768,0.06413 -0.46315,0.374388 -0.65625,0.5625 -0.166974,0.162935 -0.227978,0.384839 -0.375,0.5625 -0.174812,0.211864 -0.417989,0.380936 -0.59375,0.59375 -0.327772,0.398076 -0.819994,0.625236 -1.28125,0.84375 -0.983552,0.465531 -2.045221,0.175349 -3.0625,0.5625 -1.071671,0.407577 -1.93254,1.063442 -2.65625,1.9375 -0.340835,0.411377 -0.583297,0.864444 -0.8125,1.34375 -0.22279,0.465531 -0.404075,1.040001 -0.78125,1.40625 -0.79734,0.774301 -1.593845,1.522252 -2.4375,2.25 -1.586605,1.36809 -3.161267,3.140013 -3.65625,5.21875 -0.126358,0.530135 -0.217088,1.049839 -0.21875,1.59375 -0.0019,0.519209 -0.162625,1.045226 -0.53125,1.40625 -0.362923,0.355323 -0.878084,0.557408 -1.3125,0.8125 -0.454606,0.266493 -0.872011,0.542002 -1.28125,0.875 -0.929399,0.756724 -1.3839884,1.598626 -1.75,2.71875 -0.1638858,0.501633 -0.3496192,1.010615 -0.4375,1.53125 -0.085743,0.505433 -0.022257,0.99884 -0.09375,1.5 -0.138234,0.970485 -0.102301,1.958459 -0.09375,2.9375 0.00974,1.107295 0.021749,2.205677 0.03125,3.3125 0.011876,1.363343 0.019374,2.729936 0.03125,4.09375 0.00784,0.912771 -0.098433,1.938339 0.03125,2.84375 0.075055,0.525385 0.049368,1.113867 0.15625,1.625 0.1045069,0.50068 0.3014722,1.022014 0.34375,1.53125 0.089306,1.082121 0.2967201,2.104531 0.5625,3.15625 0.1375216,0.543437 0.2786021,1.087269 0.4375,1.625 0.1484474,0.503535 0.4309501,0.874421 0.625,1.34375 0.1833625,0.442731 0.257938,0.956869 0.4375,1.40625 0.228489,0.570988 0.470309,1.12411 0.71875,1.6875 0.417078,0.944359 1.020658,1.908345 1.65625,2.71875 0.331097,0.422778 0.665951,0.824477 1.03125,1.21875 0.349386,0.376226 0.875946,0.674335 1.3125,0.9375 0.966926,0.583339 1.938813,0.829574 3.0625,0.53125 0.528947,-0.139655 1.017266,-0.401938 1.53125,-0.5625 0.534173,-0.166262 0.954054,0.08279 1.46875,0.25 0.671694,0.219464 1.329731,0.466135 2,0.6875 0.659819,0.219464 0.963828,0.745311 1.3125,1.3125 0.341073,0.553886 0.705412,1.102465 1.09375,1.625 0.332047,0.44653 0.495245,1.118179 0.9375,1.46875 0.430853,-0.670746 0.848971,-1.361458 1.28125,-2.03125 0.41779,-0.646994 0.930303,-1.299806 1.25,-2 -1.014192,0.0779 -2.13775,-0.552181 -3.09375,-0.8125 -1.024643,-0.280267 -2.006472,-0.651225 -3,-1.03125 -0.501158,-0.191912 -0.990766,-0.420838 -1.5,-0.59375 -0.495695,-0.168159 -1.053946,-0.321085 -1.5,-0.59375 -0.414465,-0.252716 -0.873443,-0.706768 -0.40625,-1.1875 0.157235,-0.16151 0.371571,-0.548448 0.625,-0.5 0.269817,0.05036 0.502508,0.160595 0.75,0.28125 0.489282,0.23752 0.996773,0.481776 1.40625,0.84375 -0.412802,0.01994 -0.80001,0.121201 -1.21875,0.125 0.07767,0.486432 0.4282,0.633686 0.8125,0.875 0.194763,0.121608 0.245485,0.18475 0.46875,0.15625 0.220414,-0.02753 0.433698,-0.0587 0.65625,-0.0625 -0.0076,-0.421829 -0.324169,-0.80208 -0.59375,-1.09375 0.651031,0.076 1.302247,0.425384 1.90625,0.65625 0.581201,0.220417 1.191736,0.397086 1.78125,0.59375 1.243632,0.416128 2.574298,0.533114 3.75,1.125 0.137047,-0.487381 0.561515,-0.892367 0.71875,-1.375 -0.421827,0.07886 -1.059036,-0.172946 -1.46875,-0.28125 -0.483107,-0.12636 -1.029243,-0.180338 -1.5,-0.34375 -1.024879,-0.357222 -2.040233,-0.730828 -3.0625,-1.09375 -1.019893,-0.362927 -2.031649,-0.828919 -3,-1.3125 -0.223027,-0.111155 -0.463285,-0.235441 -0.6875,-0.34375 -0.08978,-0.04368 -0.185531,-0.09934 -0.28125,-0.125 -0.211389,-0.05795 -0.123303,-0.190686 -0.0625,-0.375 0.16246,-0.490231 0.536947,-0.922433 0.96875,-1.1875 0.428004,-0.262221 1.022729,-0.704497 1.53125,-0.71875 0.446766,-0.01235 0.514451,0.04175 0.875,0.3125 0.188587,0.14251 0.311378,0.362985 0.4375,0.5625 -0.237516,0.04845 -0.456737,0.01939 -0.65625,-0.125 -0.189538,-0.137758 -0.566197,-0.383858 -0.8125,-0.28125 -0.192151,0.0798 -0.317657,0.481441 -0.40625,0.65625 -0.143697,0.284071 -0.251696,0.49898 -0.3125,0.8125 -0.05795,0.297371 0.428677,0.322848 0.59375,0.34375 0.140371,0.01712 0.296653,-0.02172 0.4375,-0.03125 0.115908,-0.0076 0.228555,0.09935 0.34375,0.125 0.730836,0.160562 0.723468,-0.530566 0.4375,-1.03125 0.439641,-0.0049 0.629817,0.497926 0.75,0.84375 0.155573,0.447479 0.425893,0.792374 0.71875,1.15625 0.166973,0.207113 0.815009,0.449956 1.0625,0.40625 0.506146,-0.08835 0.841235,-0.150477 1.25,-0.46875 0.189774,-0.407576 0.880225,-0.432584 0.875,0.09375 -0.292144,-0.05985 -0.577394,-0.08235 -0.875,-0.09375 -0.167449,0.604241 0.629238,1.088725 1,1.46875 0.199276,0.203309 0.629817,-0.343343 0.75,-0.46875 0.08574,-0.09026 0.309072,-0.233544 0.34375,-0.34375 0.0551,-0.173861 -0.120182,-0.317689 -0.21875,-0.46875 -0.06769,-0.104505 -0.19588,-0.150449 -0.3125,-0.1875 -0.19405,-0.06175 -0.104953,-0.267845 0.0625,-0.3125 0.321121,-0.0855 0.60654,0.08143 0.75,0.375 0.28003,0.572891 0.44971,1.282127 1.0625,1.59375 0.207351,-0.352474 0.406452,-0.686279 0.5625,-1.0625 0.07078,-0.169113 0.10464,-0.289394 0.25,-0.40625 0.102132,-0.08171 0.113158,0.05637 0.1875,-0.09375 C 32.0607,82.12764 32.08652,82.054154 32.125,82 c 0.116145,-0.163412 0.133347,-0.370588 0.1875,-0.5625 0.0627,-0.222319 -0.163238,-0.256242 -0.34375,-0.375 C 31.800351,80.952294 31.730661,80.829946 31.5625,81 c -0.128733,0.131108 -0.150312,0.418936 -0.15625,0.59375 -0.0045,0.133005 -0.03589,0.528064 -0.28125,0.34375 C 31.0699,81.89572 30.973603,81.455752 30.9375,81.375 30.754614,80.96647 30.507163,80.740265 30.125,80.53125 29.725499,80.311787 29.439981,80.215799 28.96875,80.25 c -0.424678,0.03133 -0.726686,0.127439 -1.125,0.25 0.05962,-0.232767 0.09026,-0.65214 -0.21875,-0.75 C 27.367058,79.6683 26.980492,79.450799 26.71875,79.4375 26.352501,79.41945 26.092631,79.321522 26,79.75 c -0.06152,0.28502 -0.141929,0.594497 -0.46875,0.65625 -0.0031,-0.761947 -0.436242,-1.515805 -0.75,-2.1875 0.720859,0.176716 1.422532,0.535926 2.09375,0.84375 0.649843,0.298319 1.351955,0.499287 2.03125,0.71875 0.683333,0.221366 1.372041,0.428336 2.0625,0.625 0.520159,0.148206 1.449778,0.562466 1.96875,0.28125 -0.153673,-0.182412 -1.218274,-0.440144 -1.21875,-0.5 -0.0026,-0.31637 0.233033,-0.263199 0.5,-0.28125 0.282643,-0.01902 0.509838,0.03481 0.6875,-0.1875 0.117332,-0.146309 0.312974,-0.557752 0.53125,-0.5625 0.162223,-0.0029 0.28264,0.0093 0.4375,0.0625 0.08432,0.0285 0.156148,-0.258245 0.1875,-0.34375 0.107357,-0.289772 0.0045,-0.261843 -0.21875,-0.40625 -0.192625,-0.12351 -0.369842,-0.277786 -0.5,-0.46875 -0.318271,-0.46553 -0.51547,-0.816568 -0.78125,-1.3125 0.33448,-0.346879 1.004731,-0.867006 1.474112,-1.637944 0.0038,0.388791 0.07334,0.843163 0.119638,1.231694 0.02137,0.180515 0.383922,1.251897 0.625,1.25 0.589277,-0.0057 0.04011,-0.953578 -0.0625,-1.25 -0.191438,-0.552937 -0.1269,-1.027514 -0.125,-1.59375 0.0036,-1.106823 0.291121,-2.17358 0.53125,-3.25 0.466718,-2.089187 0.812123,-4.210247 1.21875,-6.3125 0.189775,-0.979513 0.455245,-1.971657 0.53125,-2.96875 0.03966,-0.520156 0.135381,-1.048045 0.21875,-1.5625 0.0456,-0.280273 0.05163,-1.32349 0.40625,-1.4375 0.531797,-0.171959 1.003388,-0.257974 1.5625,-0.28125 0.473843,-0.02043 1.082585,-0.200535 1.3125,0.3125 0.171011,0.38145 0.0587,1.047397 0.0625,1.46875 0.0048,0.540586 -0.0047,1.085362 0,1.625 0.01045,1.176178 0.0265,2.324299 0.03125,3.5 0.0019,0.498545 -0.09803,1.005016 -0.09375,1.5 0.005,0.559586 -0.0047,1.127913 0,1.6875 0.3767,-0.223263 0.711928,-0.844326 0.84375,-1.25 -0.301645,0.15486 -0.371912,0.215123 -0.375,-0.125 -0.0033,-0.372422 0.0033,-0.751624 0,-1.125 -0.0045,-0.510184 -0.02576,-0.993142 0.03125,-1.5 0.112107,-0.994242 0.07129,-2.091438 0.0625,-3.09375 -0.0052,-0.610891 -0.02578,-1.201609 -0.03125,-1.8125 -0.0024,-0.280267 -0.110617,-1.246573 0.34375,-1.28125 0.478832,-0.03609 0.401398,1.079055 0.4375,1.375 0.03111,0.254141 0.0046,0.497761 -0.03125,0.75 -0.03634,0.254141 0.06036,0.496807 0.0625,0.75 0.01496,1.696334 -0.04598,3.391948 -0.03125,5.09375 0.769788,-0.171964 0.473976,-1.96396 0.46875,-2.5625 L 42.125,60.53125 c -0.004,-0.462685 -0.141527,-1.248096 0.0625,-1.6875 0.234428,-0.505437 0.983608,-0.349621 1.4375,-0.4375 0.189062,-0.03707 0.512214,-0.09871 0.6875,-0.03125 0.412565,0.15866 0.448493,0.168122 0.5625,0.59375 0.121608,0.452708 0.0587,1.095073 0.0625,1.5625 0.0048,0.486432 -0.0047,0.982318 0,1.46875 0.779051,-0.638442 0.490126,-2.09469 0.46875,-2.96875 -0.0071,-0.290721 0.02535,-0.529377 0.09375,-0.8125 0.0133,-0.0551 0.261299,-0.0386 0.28125,0.03125 0.04275,0.151062 0.05954,0.315791 0.09375,0.46875 0.117808,0.520633 0.151499,1.030465 0.15625,1.5625 0.606614,-0.490231 0.265539,-1.167032 0.4375,-1.78125 0.119233,-0.428001 0.582279,-0.340052 0.90625,-0.3125 0.13966,0.01138 0.382294,-0.518016 0.46875,-0.65625 0.385725,-0.624195 0.7899,-1.227159 1.1875,-1.84375 0.161036,-0.248917 0.372997,-0.580955 0.40625,-0.875 0.038,-0.340122 0.015,-0.693503 0.0625,-1.03125 0.121133,0.22279 0.1174,0.502984 0.125,0.75 C 49.846365,54.399666 50.525043,53.559787 50.25,53.375 49.874725,53.122753 49.500444,52.631823 49.21875,52.28125 48.529005,51.424294 47.735824,50.691103 47,49.875 45.538329,48.252293 43.930015,46.750251 42.375,45.21875 40.828773,43.6958 39.293106,42.117446 37.6875,40.65625 36.135336,39.243507 34.479724,37.949081 32.78125,36.71875 31.754945,35.976276 30.71652,35.255095 29.65625,34.5625 28.746803,33.96776 27.752891,33.438897 26.9375,32.71875 27.423219,32.63894 27.860032,32.193338 28.3125,32 c 0.484532,-0.206639 0.942722,-0.38253 1.375,-0.6875 0.533698,-0.37575 0.785995,-0.443032 1.4375,-0.34375 0.578114,0.08741 1.023953,0.07173 1.375,-0.4375 0.174099,-0.251767 0.30276,-0.454837 0.53125,-0.65625 0.250342,-0.220415 0.439194,-0.172911 0.71875,0 0.44558,0.276944 0.846936,0.634328 1.25,0.96875 0.851494,0.705896 1.601309,1.49375 2.40625,2.25 1.545277,1.450745 2.843941,3.103 4.3125,4.625 1.490411,1.545277 2.922865,3.226912 4.21875,4.9375 1.043169,1.37759 1.951912,2.840955 2.90625,4.28125 0.502584,0.758625 0.993719,1.504573 1.46875,2.28125 0.247967,0.405201 0.507734,0.809273 0.75,1.21875 0.199513,0.337272 0.458774,0.750573 0.46875,1.15625 0.828929,-0.717298 0.830413,-1.813985 1,-2.8125 0.178613,-1.052194 0.333532,-2.113556 0.5625,-3.15625 0.217562,-0.989965 0.402516,-2.056384 0.53125,-3.0625 0.0703,-0.549136 0.117398,-1.070164 0.125,-1.625 0.0067,-0.466006 0.06957,-1.079496 -0.0625,-1.53125 -0.08218,-0.280744 -0.174943,-0.560631 -0.25,-0.84375 -0.113533,-0.427053 -0.08049,-0.548822 0.0625,-0.96875 0.331571,0.341073 0.668093,0.757019 0.8125,1.21875 0.07601,0.243216 0.130495,0.501559 0.1875,0.75 0.07173,0.312095 0.233709,0.148107 0.4375,0.03125 0.202837,-0.116858 1.127002,-0.792042 1.09375,-0.09375 -0.02135,0.433704 -0.63901,0.901802 -0.84375,1.25 -0.587138,0.996615 -0.83323,2.059403 -1.15625,3.15625 -0.293566,0.996141 -0.575287,2.065783 -0.71875,3.09375 -0.06033,0.434654 -0.155944,0.852297 -0.25,1.28125 -0.07315,0.334422 -0.257804,0.884803 -0.1875,1.21875 0.372904,-0.322546 0.590934,-0.791799 0.875,-1.1875 0.04893,-0.06746 0.177523,-0.20857 0.1875,-0.28125 0.0062,-0.04513 -0.113126,-0.224246 -0.125,-0.28125 -0.05083,-0.249866 0.02497,-0.566434 0.0625,-0.8125 0.157239,-1.037469 0.451681,-2.088108 0.75,-3.09375 0.296417,-0.998515 0.478588,-2.041218 1.09375,-2.90625 0.352001,-0.494983 0.771,-0.687437 1.15625,-0.125 0.346772,0.506859 0.03254,0.91802 -0.21875,1.375 -0.208538,0.37955 -0.611289,0.762924 -0.75,1.15625 -0.181463,0.513984 -0.07819,0.885615 -0.0625,1.40625 0.442731,-0.384776 0.382054,-0.973395 0.6875,-1.4375 0.327295,-0.498308 0.563789,-0.932337 0.75,-1.5 0.129206,0.126834 0.287864,0.367163 0.4375,0.15625 0.05083,-0.07173 0.317353,-0.380496 0.28125,-0.4375 -0.192866,-0.30402 -0.38199,-0.593679 -0.5625,-0.90625 -0.401875,-0.694971 -0.907333,-1.451574 -1.15625,-2.21875 0.467908,0.299745 0.724109,1.086993 0.96875,1.5625 0.237992,0.462205 0.502408,0.905296 0.78125,1.34375 0.237515,-0.138234 0.349863,-0.468884 0.21875,-0.71875 -0.45603,-0.384775 -0.802487,-1.122687 -0.96875,-1.6875 0.160562,-0.04608 0.303441,-0.09745 0.46875,-0.125 -0.07648,-0.630841 -0.62639,0.01734 -0.78125,-0.21875 -0.14916,-0.227065 -0.526267,-0.731132 -0.3125,-1 0.538685,0.267442 1.458778,0.0071 1.46875,0.875 0.0081,0.727748 -0.0018,1.436578 0.125,2.15625 0.112108,-0.01853 0.238768,-0.01547 0.34375,-0.0625 0.193337,-0.08551 0.135551,-0.174537 0.09375,-0.375 -0.06175,-0.294519 -0.09138,-0.574305 -0.09375,-0.875 -0.0029,-0.324446 0.05132,-0.678879 0,-1 C 58.5225,37.830445 58.390474,37.739687 58,37.5625 c -0.269819,-0.122558 -0.581429,-0.207722 -0.875,-0.25 -0.20616,-0.02945 -0.236701,0.06986 -0.25,-0.15625 -0.01,-0.173861 -0.0052,-0.356438 0,-0.53125 0.01236,-0.392376 -0.08893,-1.54852 0.46875,-1.625 -0.172912,0.331572 -0.179054,0.852026 -0.15625,1.21875 0.01712,0.274568 -0.02303,0.574239 0.21875,0.75 0.190958,0.13871 0.498333,0.209521 0.71875,0.28125 0.570988,0.187163 0.7026,0.500537 0.71875,1.0625 0.01425,0.484057 -0.05402,0.992972 0.25,1.40625 0.34202,-0.29642 0.678812,-0.818299 0.875,-1.21875 0.03049,-0.06267 0.05279,-0.1572 0.09375,-0.25 -0.53915,-0.104507 -1.086181,-1.018997 -1.375,-1.4375 -0.204739,-0.297369 -1.00241,-1.297974 -0.84375,-1.6875 0.405202,0.523485 0.843849,1.006816 1.25,1.53125 0.342025,0.441779 0.892745,1.013261 0.96875,1.59375 0.07516,-0.170284 0.189345,-0.342688 0.1875,-0.46875 -0.0039,-0.253666 -0.267067,-0.562838 -0.40625,-0.75 -0.331572,-0.44653 -0.692076,-0.871196 -1.03125,-1.3125 -0.335388,-0.437975 -0.467936,-0.954868 -0.71875,-1.4375 -0.221366,-0.425628 -0.848225,-0.802081 -1.21875,-1.09375 -0.430381,-0.338222 -0.906996,-0.594936 -1.40625,-0.8125 -0.456983,-0.198563 -0.953919,-0.235918 -1.4375,-0.34375 -0.558638,-0.124933 -1.065514,-0.278635 -1.59375,-0.5 -0.54391,-0.228015 -1.038812,-0.304797 -1.625,-0.34375 -0.498308,-0.03325 -0.910792,0.0099 -1.40625,-0.125 -0.242266,-0.06603 -0.530536,-0.09144 -0.75,-0.21875 -0.380025,-0.21899 -0.316821,-0.35861 0,-0.59375 0.139183,-0.103082 0.548689,-0.04635 0.71875,-0.0625 0.264117,-0.0247 0.516183,-0.07997 0.78125,-0.09375 C 50.573803,30.0719 51.208739,29.925628 51.375,29.5 51.4567,29.290986 51.708877,28.91219 51.6875,28.6875 51.65948,28.393928 51.570304,28.159068 51.5,27.875 c -0.104507,-0.418028 0.474415,-0.925349 0.625,-1.3125 0.103082,-0.265542 0.133653,-0.464031 0.09375,-0.75 -0.019,-0.140134 -0.185843,-0.61197 0.03125,-0.6875 0.364823,-0.126833 1.233579,-0.188988 1.1875,-0.75 -0.04704,-0.572412 -0.226789,-1.071588 -0.375,-1.625 -0.269819,-1.007541 -0.593613,-2.038333 -0.78125,-3.0625 -0.08788,-0.478356 0.04428,-0.950118 -0.03125,-1.4375 -0.08551,-0.553886 -0.234866,-1.083465 -0.375,-1.625 -0.129684,-0.499258 -0.318947,-0.986967 -0.375,-1.5 -0.0171,-0.155811 0.226994,-0.491041 0.3125,-0.625 0.143459,-0.22374 0.340864,-0.411236 0.5,-0.625 0.320171,-0.429428 0.612678,-0.895795 0.90625,-1.34375 C 53.382162,12.281384 54.053608,11.488669 53.875,11.1875 53.662194,10.829329 52.934922,10.628733 52.5625,10.5 52.005763,10.306662 51.471435,10.061892 50.9375,9.8125 50.463419,9.5911354 50.052733,9.2818623 49.5625,9.09375 49.039966,8.8932868 48.561012,8.8144001 48,8.8125 z m -0.65625,0.40625 c 0.548661,-0.00428 1.053164,0.029043 1.59375,0.125 1.059794,0.1871624 2.075385,0.869398 3.0625,1.28125 0.328721,0.136809 1.293706,0.371773 1.25,0.78125 -0.04465,0.420878 -0.127472,0.364141 -0.53125,0.5 -0.216618,0.07268 -0.603011,-0.149396 -0.8125,-0.21875 C 50.904884,11.355928 49.932962,10.893632 49,10.40625 48.513568,10.152109 48.014561,9.9579263 47.46875,9.9375 c -0.475981,-0.018051 -1.027818,0.199069 -1.5,0.28125 -1.037943,0.180037 -2.109519,0.495419 -3.15625,0.59375 -1.059082,0.09881 -2.132217,0.271342 -3.1875,0.40625 -0.525859,0.0665 -1.038066,0.107698 -1.5625,0.1875 -0.507097,0.0779 -1.049094,0.01734 -1.53125,0.21875 -0.990916,0.412327 -1.721865,1.593098 -2.4375,2.375 -0.728461,0.796152 -1.60287,1.44523 -2.4375,2.125 -0.337272,0.274568 -0.741175,0.511636 -1.125,0.71875 -0.436791,0.235615 -0.85647,0.191337 -1.3125,0.03125 0.22374,-0.45318 0.715388,-0.745655 1.09375,-1.0625 0.371238,-0.310671 0.785963,-0.59273 1.15625,-0.90625 0.840805,-0.711597 1.654173,-1.444449 2.4375,-2.21875 0.394276,-0.389526 0.799027,-0.763772 1.15625,-1.1875 0.195951,-0.232765 0.353622,-0.408963 0.59375,-0.59375 0.248679,-0.191438 0.472005,-0.216645 0.78125,-0.28125 0.496645,-0.103556 1.081666,-0.04282 1.59375,-0.125 0.456505,-0.07363 0.975057,-0.132023 1.4375,-0.15625 0.542723,-0.02803 1.082276,-0.210097 1.625,-0.25 0.473606,-0.03515 0.973869,-0.08537 1.4375,-0.1875 1.077608,-0.2360906 2.193429,-0.3639369 3.28125,-0.5625 0.258892,-0.047028 0.549333,-0.024124 0.8125,-0.03125 0.240366,-0.00665 0.478384,-0.09185 0.71875,-0.09375 z m -0.0625,1.65625 c -0.04038,0.213764 -0.128494,0.429287 -0.21875,0.625 -0.129209,-0.192387 0.05724,-0.506242 0.21875,-0.625 z m -2.3125,0.15625 c 0.16151,-0.0014 0.338014,0.0015 0.5,0 -0.09548,0.652693 -0.907337,1.252979 -0.71875,1.9375 0.45223,-0.485958 0.939907,-0.980485 1.21875,-1.59375 0.317322,0.491182 -0.681155,1.284162 -0.59375,1.84375 0.358174,-0.180512 0.620077,-0.542886 0.96875,-0.75 -0.103556,0.308296 -0.211931,0.646679 -0.125,0.96875 0.701621,-0.427528 0.890806,-1.35742 1.5625,-1.8125 -0.270768,0.595689 -0.861495,1.145081 -0.9375,1.8125 0.530135,-0.0057 0.856607,-0.685325 1.125,-1.0625 0.285018,-0.400927 0.469696,-0.860883 0.90625,-1.125 -0.09501,0.468381 -0.538985,0.938073 -0.78125,1.34375 -0.0722,0.120183 -0.720721,1.035796 -0.40625,1.09375 0.09026,0.01615 0.453447,-0.319896 0.5,-0.375 0.181462,-0.215664 0.357016,-0.444284 0.5,-0.6875 0.249866,-0.425153 0.470171,-0.894032 0.90625,-1.15625 -0.14346,0.439879 -0.457585,0.822574 -0.6875,1.21875 -0.13871,0.240366 -0.269441,0.477434 -0.40625,0.71875 -0.03753,0.0665 -0.309044,0.65201 -0.0625,0.5 0.425628,-0.263167 0.666257,-0.715998 0.9375,-1.125 0.228965,-0.346298 0.526021,-0.969869 0.96875,-1.0625 -0.263167,0.808503 -1.081567,1.452694 -1.1875,2.3125 0.435129,-0.144409 0.699509,-0.571726 0.9375,-0.9375 0.198087,-0.30307 0.443298,-0.973296 0.84375,-1.03125 -0.115433,0.789502 -1.059583,1.37937 -0.9375,2.21875 0.366249,-0.221839 0.583535,-0.680677 0.8125,-1.03125 0.208064,-0.318272 0.489274,-0.813992 0.875,-0.9375 -0.122558,0.45128 -0.466136,0.900173 -0.6875,1.3125 -0.104982,0.193813 -0.228149,0.400785 -0.25,0.625 -0.01995,0.211864 -0.382361,0.194998 -0.59375,0.21875 -1.067395,0.120183 -2.122955,0.07756 -3.1875,0.25 -2.108664,0.340597 -4.211776,0.650714 -6.28125,1.1875 -1.007304,0.261267 -2.017024,0.672397 -2.96875,1.09375 -0.99519,0.441779 -1.977326,0.866512 -2.90625,1.4375 -0.447241,0.275518 -0.879067,0.629613 -1.375,0.8125 -0.53726,0.197613 -0.920463,-0.243651 -1.28125,-0.59375 -0.3957,-0.384775 -0.862001,-0.737273 -1.21875,-1.15625 -0.198563,-0.233716 -0.08591,-0.276567 0.125,-0.40625 0.222077,-0.136334 0.417173,-0.278839 0.625,-0.4375 0.854818,-0.653168 1.684338,-1.288199 2.4375,-2.0625 0.388338,-0.399027 0.723939,-0.802623 1.09375,-1.21875 0.165549,-0.186212 0.35145,-0.389588 0.53125,-0.5625 0.171011,-0.164361 0.401023,-0.513469 0.625,-0.59375 0.994478,-0.356273 2.06127,-0.247115 3.09375,-0.40625 1.042456,-0.160561 2.087057,-0.285388 3.125,-0.46875 0.685232,-0.121608 1.334617,-0.181799 2.03125,-0.1875 -0.108307,0.537736 -0.630869,0.911063 -0.71875,1.46875 0.568613,-0.101182 1.231611,-1.022287 1.0625,-1.59375 z m -1.09375,0.5 c -0.300338,-0.05166 -0.691524,0.591865 -0.71875,0.84375 0.239178,0.0285 1.096093,-0.471156 0.8125,-0.75 -0.03925,-0.03854 -0.05085,-0.08637 -0.09375,-0.09375 z M 46.6875,12 c -0.180986,0.369574 -0.366248,0.187162 0,0 z m 5.59375,0.53125 c 0.269821,0.508283 -0.604095,1.561989 -1.0625,1.71875 0.06033,-0.531085 0.616446,-1.424231 1.0625,-1.71875 z M 49.75,14.9375 c 0.244167,4.75e-4 0.47506,0.0435 0.71875,0.0625 0.370525,0.02945 0.457686,0.01086 0.65625,0.3125 0.297369,0.451754 0.366415,1.046616 0.53125,1.5625 0.14251,0.447479 0.301574,0.933594 0.3125,1.40625 0.0114,0.469331 -0.09891,1.115021 0.03125,1.5625 0.329672,1.126299 0.5875,2.277576 0.90625,3.40625 0.0703,0.248441 0.475914,1.515507 -0.125,1.40625 -0.472667,-0.08598 -1.296856,-0.69904 -1.59375,-0.0625 -0.287394,0.05605 -0.363803,-0.154008 -0.3125,-0.40625 0.0532,-0.265067 0.253289,-0.474686 0.40625,-0.6875 -0.295945,0.105932 -0.698799,0.401327 -0.71875,0.75 -0.03183,0.567663 0.606674,0.608476 1,0.59375 0,0.414702 0.01072,0.752984 -0.375,1 -0.264592,0.170061 -0.91453,0.408087 -0.84375,-0.15625 -0.211864,0.240841 -0.431223,0.543428 -0.46875,0.875 0.326346,0.03895 0.465185,0.03851 0.6875,0.28125 0.190012,0.208538 0.274294,0.520932 0.375,0.78125 0.154861,0.401876 0.609088,0.983845 0.40625,1.4375 -0.488808,1.096372 -1.958833,0.8977 -2.96875,0.90625 -0.487382,0.0043 -1.080343,-0.104845 -1.5625,-0.1875 -0.471231,-0.08123 -1.021847,-0.192384 -1.4375,-0.4375 -0.993765,-0.586664 -1.82023,-1.281038 -2.5,-2.21875 -0.29927,-0.413277 -0.478382,-0.947032 -0.9375,-1.21875 0.478594,0.866457 0.954662,1.812257 1.71875,2.46875 0.872157,0.7496 1.813949,1.379883 2.96875,1.625 0.280269,0.05985 0.492533,0.126967 0.75,0.25 0.179087,0.08598 0.18085,0.522562 0.1875,0.71875 0.01615,0.495458 0.110657,1.074643 0,1.5625 -0.09643,0.428003 -0.352501,1.125982 -0.71875,1.40625 -0.37385,0.285494 -1.029822,0.1837 -1.46875,0.1875 -1.125824,0.01 -2.221726,0.146749 -3.34375,0.15625 -0.547948,0.0048 -0.990802,-0.410148 -1.34375,-0.8125 C 40.34524,33.0778 39.964274,32.738874 39.59375,32.375 38.79546,31.590248 37.994307,30.860722 37.125,30.15625 36.730486,29.836555 36.187533,29.529287 36.25,28.96875 36.26022,28.87564 36.434106,28.440146 36.53125,28.5 c 0.183837,0.112108 0.355963,0.248642 0.53125,0.375 0.512558,0.370049 0.912997,0.387351 1.53125,0.375 0.496645,-0.0095 0.869569,-0.535352 1.15625,-0.875 0.635117,-0.751499 0.07852,-2.036338 -0.84375,-2.21875 0.150822,-0.470756 0.757801,-0.742431 1.125,-1.03125 0.211864,-0.166736 0.353384,-0.331941 0.59375,-0.46875 0.310908,-0.176711 0.454362,-0.02647 0.65625,0.25 0.228728,0.313521 0.630799,0.875479 1.03125,0.4375 0.363637,-0.398076 0.702901,-0.850499 1.0625,-1.25 0.314946,-0.350098 0.850976,-0.60077 1.03125,-1.0625 0.120183,-0.307345 0.223567,-0.598906 0.34375,-0.90625 0.09548,-0.243692 0.05213,-0.522833 0.03125,-0.78125 -0.03657,-0.44463 -0.395461,-1.018997 -0.21875,-1.4375 0.22469,-0.532035 0.458943,-0.989612 0.5625,-1.5625 0.0437,-0.24369 0.0247,-0.470784 0,-0.71875 -0.0266,-0.265067 -0.195646,-0.390845 0.125,-0.46875 0.527285,-0.127308 0.840523,-0.434477 1.25,-0.78125 -0.257943,0.106407 -0.570132,0.09412 -0.84375,0.125 -0.354373,0.0399 -0.345073,-0.482761 -0.375,-0.6875 -0.0665,-0.452704 0.928404,-0.519747 1.25,-0.5625 1.069771,-0.141559 2.136629,-0.313925 3.21875,-0.3125 z m -5.6875,0.84375 c 0.0012,0.411852 -0.1288,0.805473 -0.125,1.21875 -0.233478,-0.251292 -0.178782,-1.025887 0.125,-1.21875 z m -1.46875,0.25 c -0.08123,0.515409 -0.305985,0.96844 -0.34375,1.5 -0.03824,0.542486 0.08873,1.019167 0.25,1.53125 0.300695,0.954338 1.028264,1.760305 1,2.8125 -0.461968,-0.121133 -0.789119,-0.892302 -1.0625,-1.25 -0.327059,-0.428479 -0.700392,-0.932914 -0.8125,-1.46875 -0.170773,-0.817053 -0.316447,-3.080822 0.96875,-3.125 z m -1.4375,0.34375 c 0.0746,-0.0066 0.142389,-0.0084 0.21875,0.03125 -0.432041,1.340063 -0.538077,2.922967 0.25,4.1875 0.382875,0.614215 0.933325,1.232079 1.125,1.9375 0.156997,0.578113 0.370053,1.723363 -0.4375,1.90625 -0.01544,-0.573838 -0.300316,-1.023171 -0.625,-1.46875 C 41.353078,22.509394 40.93635,22.163752 40.5625,21.75 40.181525,21.327697 39.767034,20.887287 39.625,20.3125 39.473465,19.700659 39.474213,19.129416 39.46875,18.5 c 0.118995,0.14251 0.114684,0.355489 0.15625,0.53125 0.07054,0.29642 0.151329,0.535081 0.28125,0.8125 0.22279,0.477406 0.523985,0.936852 0.9375,1.28125 0.443917,0.370525 0.827901,0.73527 1.1875,1.1875 0.34131,0.429428 0.365092,0.985066 0.5,1.5 0.352711,-0.584289 -0.0347,-1.512346 -0.5,-1.9375 -0.59854,-0.54676 -1.23785,-0.993378 -1.625,-1.71875 -0.366487,-0.687371 -0.449547,-1.5477 -0.3125,-2.3125 0.0692,-0.386557 0.540333,-1.422567 1.0625,-1.46875 z m -0.875,0.15625 c -0.0076,0.235141 -0.09667,0.432137 -0.21875,0.625 -0.141084,-0.106882 -0.303033,-0.204939 -0.375,-0.375 0.190012,-0.106883 0.385449,-0.187771 0.59375,-0.25 z m 2.6875,0 c 0.0055,0.639392 -0.01721,1.275408 0.09375,1.90625 0.102369,0.581913 0.328107,1.138736 0.40625,1.71875 -0.470994,-0.350098 -0.72713,-1.296988 -0.84375,-1.84375 -0.108783,-0.512558 -0.168333,-1.451578 0.34375,-1.78125 z m 1.6875,0.34375 c 0.05653,0.199038 0.147225,0.385686 0.15625,0.59375 -0.198563,-0.125408 -0.308734,-0.403263 -0.15625,-0.59375 z m -1.1875,0.25 c 0.1969,0.289294 0.396001,0.56718 0.5625,0.875 0.06983,0.130159 0.12181,0.263266 0.15625,0.40625 0.02565,0.104507 -0.248269,0.187873 -0.34375,0.21875 -0.138234,0.04465 -0.364922,0.129786 -0.40625,-0.03125 C 43.38216,18.378086 43.35729,18.223265 43.34375,18 c -0.01687,-0.281218 -0.05812,-0.637959 0.125,-0.875 z m -4.5,0.03125 c -0.104032,0.158661 -0.22584,0.258143 -0.375,0.375 0.0209,-0.224214 0.123233,-0.397801 0.375,-0.375 z m 10.6875,0.4375 c -0.408178,-0.01062 -0.861407,0.101994 -1.21875,0.1875 -0.512083,0.122558 -1.109423,0.337504 -1.53125,0.65625 -0.252717,0.190012 -0.471463,0.339133 -0.65625,0.59375 -0.176712,0.244641 -0.177423,0.580006 -0.21875,0.875 0.353423,-0.283119 0.358947,-0.837708 0.78125,-1.09375 0.497358,-0.302594 0.995788,-0.465492 1.5625,-0.59375 0.507333,-0.115432 1.104841,-0.05822 1.625,-0.0625 0.540111,-0.0048 0.980791,0.134194 1.5,0.21875 -0.07933,-0.573838 -1.003796,-0.602843 -1.4375,-0.71875 -0.120896,-0.03218 -0.270191,-0.05896 -0.40625,-0.0625 z m -11.46875,0.1875 c 0.06704,-0.01401 0.158692,0.0012 0.28125,0 -0.07624,0.484532 -0.29723,0.956768 -0.40625,1.4375 -0.105694,0.466006 -0.08167,0.98052 0.0625,1.4375 0.272431,0.863607 1.0433,2.117392 0.46875,3 -0.322546,0.495933 -0.731097,0.784673 -1.15625,1.1875 -0.368862,0.350098 -0.729301,0.732793 -0.90625,1.21875 -0.180512,0.495932 -0.227707,0.982216 -0.3125,1.5 -0.08479,0.518259 -0.190617,1.035557 -0.6875,1.3125 0.02494,-0.166261 0.08177,-0.33849 0.125,-0.5 -0.664094,0.171011 -1.292543,0.0794 -1.96875,0.125 -0.332285,0.02233 -0.667309,0.151735 -0.90625,0.375 -0.204976,0.190962 -0.299266,0.591508 -0.4375,0.84375 -0.125409,0.22849 -0.301945,0.599144 -0.5625,0.6875 -0.330622,0.111157 -0.685766,-0.07048 -1,-0.09375 -0.483344,-0.03563 -0.604196,0.03614 -1.03125,0.28125 -0.259604,0.14916 -0.466407,0.433394 -0.75,0.53125 0.04917,-0.435129 0.292307,-1.028942 0.75,-1.15625 0.562437,-0.156286 1.008003,0.301033 1.53125,0.1875 0.529422,-0.115432 0.76978,-0.789219 0.875,-1.25 0.11852,-0.519684 0.717527,-0.647696 0.875,-1.09375 0.07933,-0.224215 0.398512,-0.09301 0.59375,-0.03125 0.130395,0.04133 0.186481,0.05127 0.28125,0.15625 0.08147,0.09026 -0.02463,0.197374 0.125,0.21875 0.618728,0.08741 1.020525,0.0045 1.40625,-0.5 0.160323,-0.209488 0.37086,-0.391183 0.40625,-0.65625 0.03681,-0.275043 0.08154,-0.538882 0.125,-0.8125 0.07743,-0.490232 0.144235,-0.979978 0.5625,-1.3125 0.549136,-0.437504 1.247588,-0.75556 1.625,-1.375 0.414228,-0.680245 -0.01533,-1.431081 -0.25,-2.09375 -0.19785,-0.558162 -0.48972,-1.400036 -0.375,-2 0.06912,-0.361499 0.118552,-0.695878 0.28125,-1.03125 0.06841,-0.14061 0.150821,-0.29689 0.21875,-0.4375 0.05392,-0.111395 0.08921,-0.142237 0.15625,-0.15625 z m 0.90625,0 c -0.02921,0.853156 -0.273013,1.75817 0.03125,2.59375 0.276468,0.7591 0.860376,1.671546 0.84375,2.5 -0.01164,0.574788 -0.133922,0.877065 -0.375,1.40625 -0.175762,0.385726 -0.493246,0.634803 -0.75,0.96875 -0.227778,0.296894 -0.64736,0.819351 -0.6875,1.1875 -0.0513,0.470281 0.01642,0.787048 0.28125,1.1875 0.153197,-0.09738 0.315688,-0.221973 0.5,-0.25 -0.07672,0.664569 -1.046653,0.461936 -1.1875,-0.0625 -0.103319,-0.383825 -0.137689,-0.575424 -0.09375,-0.96875 0.03325,-0.298794 0.09996,-0.610781 0.15625,-0.90625 -0.3824,0.432278 -0.533658,0.833838 -0.59375,1.40625 -0.0266,0.255092 0.05979,0.528058 0.09375,0.78125 0.02042,0.151535 0.480217,0.431018 0.59375,0.53125 0.185025,0.162935 0.323695,0.320203 0.59375,0.28125 0.309484,-0.0456 0.463523,-0.285286 0.6875,-0.5 0.371474,-0.355799 0.05935,-0.908283 -0.28125,-1.15625 0.216614,-0.186212 0.432579,0.06104 0.5625,0.21875 0.200225,0.243216 0.07936,0.56908 0.0625,0.875 -0.03444,0.621817 -0.565855,0.750644 -1.0625,0.84375 -0.277419,0.05178 -0.443571,0.132109 -0.6875,0 -0.322546,-0.174811 -0.493822,-0.277956 -0.71875,-0.5625 -0.30212,-0.382875 -0.325293,-1.079496 -0.25,-1.53125 0.08551,-0.510185 0.313786,-1.016928 0.71875,-1.34375 0.417078,-0.337747 0.903023,-0.580752 1.3125,-0.9375 0.344635,-0.30022 0.565961,-0.961621 0.59375,-1.40625 0.03373,-0.542486 -0.265232,-1.04682 -0.53125,-1.5 -0.154147,-0.262693 -0.345344,-0.553981 -0.4375,-0.84375 -0.105695,-0.332522 -0.09066,-0.653227 -0.09375,-1 -0.0052,-0.59949 0.234693,-1.420124 0.71875,-1.8125 z m -1.84375,0.125 c -0.01663,0.483107 -0.09877,0.958193 -0.15625,1.4375 -0.05629,0.469805 0.100602,1.028871 0.25,1.46875 0.143935,0.424203 0.49206,0.928471 0.53125,1.375 0.03634,0.414228 0.149943,1.085436 -0.3125,1.3125 -0.02351,-1.07737 -1.074338,-2.01431 -1.4375,-3 -0.340835,-0.924411 -0.118157,-2.594225 1.125,-2.59375 z m 12.875,0.90625 c -0.642242,0.126358 -1.169716,0.494975 -1.6875,0.875 -0.416128,0.304496 -1.334893,0.494362 -1.4375,1.0625 0.410427,0.258417 0.464164,0.862343 1,0.96875 -0.04751,-0.239416 -0.156352,-0.502508 -0.125,-0.75 0.53251,0.430378 1.166457,0.446832 1.8125,0.34375 0.0014,0.161986 -0.0019,0.338014 0,0.5 0.503533,-0.08693 0.556968,-1.1687 0.65625,-1.5625 0.0703,-0.281694 0.355626,-0.572404 0.34375,-0.875 -0.0114,-0.286918 -0.246129,-0.624729 -0.5625,-0.5625 z m -14.5625,0.09375 c -0.02019,0.660294 -0.178037,1.289659 0.1875,1.90625 0.209726,0.354373 0.434411,0.716202 0.65625,1.0625 0.154623,0.241316 0.357797,0.490531 0.40625,0.78125 -0.18645,-0.08836 -0.342765,-0.243891 -0.5,-0.375 -0.05059,0.300695 0.1534,0.654279 0.15625,0.96875 -0.570038,-0.346298 -0.989481,-1.411809 -1.09375,-2.03125 -0.06959,-0.413277 -0.02769,-0.863222 -0.03125,-1.28125 -0.0026,-0.300219 -0.06698,-0.835537 0.21875,-1.03125 z m 8.625,0.15625 c 0.04109,0.08075 0.08391,0.169245 0.125,0.25 -0.308771,0.06555 -0.326413,-0.275652 -0.125,-0.25 z M 34.25,19.5 c 7.29e-4,0.307345 -0.141626,0.636331 -0.125,0.9375 0.02446,0.446054 0.076,0.766622 0.21875,1.1875 C 34.552051,22.23779 34.906419,22.891383 35,23.53125 34.298379,23.048618 34.085914,22.202776 33.875,21.4375 33.768831,21.051775 33.585668,19.381717 34.25,19.5 z m 0.59375,0 c 0.0064,0.729648 0.05113,1.533281 0.34375,2.21875 0.161986,0.379075 0.302489,0.74735 0.46875,1.125 0.199037,0.452704 0.261671,0.787693 0.3125,1.28125 -0.230869,-0.251734 -0.295805,-0.78023 -0.40625,-1.09375 -0.140372,-0.397602 -0.352741,-0.759599 -0.5,-1.15625 -0.214714,-0.579063 -0.749359,-1.83774 -0.21875,-2.375 z m 14.46875,0.125 c -0.178612,0.30592 -0.481301,0.578922 -0.84375,0.625 0.07363,-0.335372 0.520728,-0.612649 0.84375,-0.625 z m -0.25,0.90625 c 0.265067,0.03278 0.215323,0.240735 0.25,0.46875 0.0228,0.15296 -0.326445,0.110376 -0.40625,0.09375 -0.178137,-0.03705 -0.248846,-0.232016 -0.3125,-0.375 0.121608,-0.06223 0.321015,-0.206026 0.46875,-0.1875 z m -5.21875,0.125 c 0.182174,0.540586 0.222448,0.993887 0.25,1.5625 -0.150823,-0.176712 -0.132634,-0.438686 -0.1875,-0.65625 -0.06104,-0.241791 -0.267238,-0.68251 -0.0625,-0.90625 z m -2.28125,2.6875 c 0.08313,0.128259 0.580249,1.184108 0.21875,1.0625 -0.406626,-0.136809 -0.613976,-0.791732 -0.21875,-1.0625 z M 32.6875,24.5 c 0.184312,0.161036 0.328513,0.386738 0.5,0.5625 0.254616,0.261267 0.433052,0.312567 0.78125,0.4375 0.473131,0.169586 0.855147,-0.694795 1.28125,-0.78125 -0.09881,0.709222 -0.756372,1.558633 -1.5625,1.4375 -0.633217,-0.09548 -1.491657,-1.019708 -1,-1.65625 z M 35.5,25.8125 c 0.0038,0.45603 0.03329,0.802623 -0.15625,1.21875 -0.204264,0.44938 -0.304623,0.938655 -0.90625,0.875 0.189775,-0.323496 0.531826,-0.541053 0.71875,-0.875 -0.256754,0.05605 -0.492296,0.189196 -0.75,0.25 -0.271956,0.06365 -0.595682,0.0095 -0.875,0 -0.627041,-0.0209 -1.062936,0.321219 -1.65625,0.40625 -0.0114,-0.862657 1.031211,-0.904044 1.625,-1 0.322784,-0.05178 0.810631,-0.07803 1.09375,-0.25 0.317083,-0.192863 0.588929,-0.436413 0.90625,-0.625 z m -3.03125,0.40625 c -0.239891,0.3691 -0.830649,0.773037 -1.21875,0.96875 0.01876,-0.61564 0.654413,-0.9678 1.21875,-0.96875 z m 18.75,0.28125 c 0.298399,-0.04505 0.350512,0.391479 0.21875,0.65625 -0.286444,-0.09263 -0.832455,-0.355284 -0.375,-0.59375 0.05172,-0.02696 0.113622,-0.05606 0.15625,-0.0625 z M 34.0625,28.75 c -0.191675,0.134909 -0.36336,0.1231 -0.59375,0.125 0.171012,-0.139659 0.382836,-0.116449 0.59375,-0.125 z m 1.21875,0.8125 c 0.712091,0.01198 1.390977,0.509055 1.9375,1 0.868832,0.780001 1.735945,1.54702 2.5625,2.375 0.730835,0.732498 1.359212,1.723026 2.5,1.71875 0.227302,-9.73e-4 0.458297,-0.115499 0.6875,-0.125 0.292381,-0.01283 0.582381,-0.02887 0.875,-0.03125 0.550324,-0.0048 1.074439,0.0048 1.625,0 0.473131,-0.0048 1.085298,0.0093 1.5,-0.25 0.418503,-0.261267 0.711283,-0.936648 0.96875,-1.34375 0.159611,-0.251767 0.460129,-1.107117 0.78125,-1.21875 0.226114,-0.07885 0.507361,-0.27796 0.71875,-0.125 0.130158,0.09501 0.0287,0.617942 -0.0625,0.75 -0.591889,0.856482 -0.962367,1.877741 -1.46875,2.78125 -0.09691,0.172911 -0.24664,0.510993 -0.40625,0.625 -0.187163,0.134435 -0.593036,0.09185 -0.8125,0.09375 -0.531085,0.0043 -1.064565,-0.02052 -1.59375,0.03125 -1.04198,0.102607 -2.109043,0.195949 -3.15625,0.21875 -0.61184,0.01235 -1.031382,-0.02897 -1.5,-0.4375 -0.41209,-0.359124 -0.769915,-0.773747 -1.125,-1.1875 C 38.594252,33.60097 37.754927,32.866151 36.96875,32.09375 36.600126,31.731776 36.227338,31.346773 35.84375,31 35.468238,30.660828 35.064946,30.371102 34.75,29.96875 c -0.06437,-0.08218 -0.137384,-0.156419 -0.1875,-0.25 0.247907,-0.123033 0.481386,-0.160243 0.71875,-0.15625 z M 51,31.59375 c 0.316749,5.56e-4 0.609729,0.152378 0.9375,0.25 0.707323,0.212338 1.406754,0.446388 2.125,0.625 -0.268865,0.478831 -0.753421,0.828851 -1.15625,1.1875 -0.378599,0.337272 -0.715727,0.724175 -1.0625,1.09375 -0.703996,0.748649 -1.218067,1.605992 -1.71875,2.5 -1.061695,1.898225 -1.575624,4.074867 -2.34375,6.09375 -0.06318,0.166261 -0.139522,0.328039 -0.1875,0.5 C 47.142471,43.572988 46.824446,43.091277 46.5,42.6875 c -0.361024,-0.449379 -0.483409,-0.850464 -0.34375,-1.40625 0.258893,-1.029868 0.582074,-2.071585 0.96875,-3.0625 0.404726,-1.037469 0.882122,-2.035482 1.3125,-3.0625 0.385726,-0.92251 0.878286,-1.973697 1.46875,-2.78125 0.170536,-0.233715 0.514282,-0.621844 0.78125,-0.71875 0.110089,-0.03978 0.206917,-0.06268 0.3125,-0.0625 z m 4.09375,1.09375 c 0.406961,-0.0372 0.956968,0.322592 1.25,0.53125 0.378128,0.270768 1.059443,0.643691 1.125,1.15625 -0.947215,0.321596 -1.950148,0.618107 -2.71875,1.28125 -0.838906,0.722048 -1.562054,1.538945 -2.28125,2.375 -1.403243,1.629357 -2.496498,3.595294 -3.28125,5.59375 -0.150585,0.383826 -0.35932,1.231541 -0.8125,1.375 -0.186212,0.0589 -0.149395,0.09056 -0.21875,-0.09375 -0.03278,-0.08835 -0.139251,-0.248743 -0.125,-0.34375 0.0418,-0.275518 0.07122,-0.547907 0.15625,-0.8125 0.323021,-1.008966 0.576273,-2.056486 1,-3.03125 0.44748,-1.030343 0.829869,-2.079083 1.3125,-3.09375 0.475982,-1.000891 1.0932,-1.849172 1.84375,-2.65625 0.370049,-0.397601 0.744874,-0.772052 1.15625,-1.125 0.442731,-0.3805 0.904512,-0.88796 1.4375,-1.125 0.05136,-0.02292 0.09811,-0.02594 0.15625,-0.03125 z m -29.90625,0.25 c 0.413812,0.01327 0.783562,0.13492 1.21875,0.25 0.59854,0.158185 0.562841,0.651496 0.3125,1.09375 -0.235854,0.417078 -0.561106,0.803199 -0.84375,1.1875 -0.350811,0.475981 -0.691942,0.964267 -1,1.46875 -0.537735,0.880234 -1.089029,1.72339 -1.59375,2.625 -0.534409,0.954813 -1.110201,1.894637 -1.65625,2.84375 -0.529423,0.920136 -0.963148,1.898335 -1.375,2.875 -0.100707,0.238466 -0.179729,0.527686 -0.3125,0.75 -0.189775,0.318271 -0.339778,0.384398 -0.6875,0.40625 -0.472894,0.02945 -0.966744,-0.09165 -1.4375,-0.15625 -0.866932,-0.118758 -1.564834,0.178031 -2.375,0.46875 -0.673594,0.241316 -1.269402,0.681325 -2,0.6875 -0.0095,-1.090197 0.04241,-2.160482 0.46875,-3.1875 0.404727,-0.973814 1.143926,-1.881102 1.875,-2.625 0.748886,-0.761951 1.564461,-1.431353 2.34375,-2.15625 0.400689,-0.372425 0.699339,-0.812123 1.0625,-1.21875 0.329196,-0.368149 0.769373,-0.709246 1,-1.15625 0.249629,-0.484532 0.405704,-1.024596 0.71875,-1.46875 0.319458,-0.45318 0.644234,-0.852976 1.0625,-1.21875 0.818003,-0.714447 1.686541,-1.28739 2.78125,-1.4375 0.150051,-0.02054 0.299563,-0.03567 0.4375,-0.03125 z m 2.34375,1.1875 c 0.68357,-0.09976 -0.14383,1.04214 -0.25,1.1875 -0.321596,0.440354 -0.613529,0.905771 -0.9375,1.34375 -0.648893,0.876908 -1.204087,1.825589 -1.78125,2.75 -1.126299,1.804643 -2.086821,3.757821 -2.90625,5.71875 -0.176949,0.423253 -0.320267,1.097378 -0.625,1.4375 -0.170774,0.190963 -0.302556,0.472008 -0.59375,0.34375 -0.30402,-0.133959 -0.200088,-0.477332 -0.1875,-0.75 0.02257,-0.484532 0.420262,-1.099446 0.625,-1.53125 0.238704,-0.503058 0.480419,-0.979943 0.75,-1.46875 1.013954,-1.836946 1.972812,-3.712084 3.125,-5.46875 0.422066,-0.644142 0.879271,-1.239408 1.3125,-1.875 0.389288,-0.571938 0.811781,-1.404381 1.46875,-1.6875 z m 0.75,0.65625 c 0.123983,0.489282 0.217866,0.979467 0.34375,1.46875 0.08479,0.330146 0.474521,1.241481 0.15625,1.53125 -0.408527,0.371475 -0.934204,0.484186 -1.4375,0.6875 -0.222553,0.08931 -0.463998,0.197644 -0.6875,0.28125 -0.269818,0.100707 -0.06925,0.397833 -0.03125,0.65625 0.07553,0.517784 0.236937,1.038065 0.25,1.5625 0.01639,0.661243 -0.451678,0.763536 -0.96875,0.96875 -0.236803,0.09406 -0.441536,0.174265 -0.65625,0.3125 -0.345585,0.222789 -0.430171,0.281348 -0.5,0.6875 -0.09049,0.527284 0.160423,1.006815 0.1875,1.53125 0.01045,0.204263 0.0134,0.394712 -0.03125,0.59375 -0.03159,0.140134 -0.411067,0.324545 -0.53125,0.40625 -0.325159,0.220415 -0.748165,0.318436 -1.09375,0.53125 -0.347011,0.213764 -0.193066,0.778805 -0.15625,1.09375 0.04751,0.404727 0.05894,0.811648 0.0625,1.21875 -0.500921,-0.160086 -0.642405,-0.592693 -0.75,-1.0625 -0.125408,-0.54866 -0.306529,-1.122688 -0.25,-1.6875 0.03966,-0.396652 1.046144,-0.615091 1.34375,-0.75 0.59094,-0.266967 0.51208,-0.797566 0.4375,-1.3125 -0.06603,-0.45603 -0.252411,-1.05062 -0.09375,-1.5 0.172436,-0.489757 0.901021,-0.570065 1.34375,-0.71875 0.315658,-0.105932 0.465321,-0.21661 0.71875,-0.4375 0.234903,-0.204738 0.158965,-0.468781 0.125,-0.75 -0.06888,-0.570037 -0.244741,-1.048313 -0.1875,-1.625 0.0342,-0.344873 0.868246,-0.509194 1.125,-0.59375 0.390238,-0.128734 0.949511,-0.209618 0.96875,-0.6875 0.03278,-0.811353 -0.58911,-1.855214 0.3125,-2.40625 z m 0.5,0.09375 c 0.468143,0 0.899766,0.41758 1.21875,0.71875 -0.136572,0.209964 -0.274598,0.375542 -0.5,0.5 0.22754,0.167686 0.453818,0.335506 0.75,0.25 0.004,0.502583 -0.22014,0.997995 -0.375,1.46875 -0.186687,0.569088 -0.347548,1.128863 -0.5625,1.6875 -0.379788,0.989965 -0.77826,1.960361 -1.1875,2.9375 -0.84318,2.013183 -1.874787,3.932429 -3.03125,5.78125 -0.173387,0.276943 -0.311683,0.481336 -0.5625,0.6875 -0.139421,0.114482 -0.621708,-0.113666 -0.6875,-0.25 C 23.623811,48.20117 23.468614,47.634234 23.4375,47.125 23.41802,46.803879 23.40238,46.61462 23.5,46.3125 c 0.04323,-0.134908 0.519678,-0.347346 0.65625,-0.40625 0.432516,-0.187638 1.151364,-0.392537 1.125,-0.96875 -0.02375,-0.518259 -0.143289,-1.046616 -0.125,-1.5625 0.0083,-0.235615 -0.08591,-0.583841 0.125,-0.71875 0.281219,-0.179561 0.534267,-0.348092 0.84375,-0.46875 0.46363,-0.179562 1.10851,-0.271812 1.15625,-0.84375 0.04323,-0.513983 -0.149735,-1.044241 -0.1875,-1.5625 -0.04323,-0.599015 0.03634,-0.876661 0.65625,-1.09375 0.423966,-0.147735 1.143083,-0.298449 1.40625,-0.6875 0.244641,-0.361973 0.01703,-1.080175 -0.0625,-1.46875 -0.111632,-0.544386 -0.204431,-1.110914 -0.3125,-1.65625 z m 27.78125,0.34375 -0.125,2.65625 c 0.0015,0.16246 -0.15625,0.0625 -0.15625,0.0625 l 0.0625,-2.625 z M 55.78125,35.625 c 0.190015,0.60899 -0.0052,1.249859 0,1.875 0.0015,0.207589 0.03844,0.773241 -0.125,0.90625 -0.15201,0.123032 -0.28824,0.236495 -0.46875,0.3125 -0.229917,0.09643 -0.249588,0.06549 -0.375,-0.125 -0.170534,-0.257942 -0.358915,-0.536982 -0.5,-0.8125 -0.201888,-0.395226 -0.308466,-0.567349 -0.09375,-0.96875 0.272193,-0.507809 0.978213,-1.091543 1.5625,-1.1875 z m -8.5,0.6875 c -0.019,0.535836 -0.322338,1.062293 -0.5,1.5625 -0.165311,0.465056 -0.31674,0.936919 -0.46875,1.40625 -0.170536,0.527285 -0.320438,1.038066 -0.5,1.5625 -0.08741,0.254617 -0.115534,0.466375 -0.40625,0.46875 -0.100707,9.73e-4 -0.405571,-0.45762 -0.46875,-0.53125 -0.297845,-0.350098 -0.76218,-0.79207 -0.875,-1.25 -0.05629,-0.228015 0.2159,-0.331533 0.21875,-0.59375 0.0021,-0.207114 -0.312973,-0.521682 -0.53125,-0.40625 -0.235853,0.124933 -0.221394,0.319288 -0.5,0.125 -0.247491,-0.172436 -0.448186,-0.40506 -0.65625,-0.625 -0.352235,-0.371949 -0.710943,-0.732047 -1,-1.15625 -0.07862,-0.115432 -0.129411,-0.269916 -0.15625,-0.40625 0.456742,-0.0038 0.890096,-0.102199 1.34375,-0.125 0.508997,-0.02565 1.021779,0.0043 1.53125,0 0.988778,-0.0086 1.979735,-0.02222 2.96875,-0.03125 z m -16.3125,0.125 c -0.165785,1.049819 -0.520016,2.145384 -0.84375,3.15625 -0.333472,1.041269 -0.706735,2.083834 -1.125,3.09375 -0.844606,2.039784 -1.66201,4.058445 -2.65625,6.03125 -0.154148,0.30592 -0.535997,1.082553 -0.96875,1.03125 -0.584526,-0.06936 -0.208809,-0.958433 -0.0625,-1.21875 0.52871,-0.939612 1.082141,-1.862438 1.59375,-2.8125 1.034855,-1.921027 2.020691,-3.927913 2.71875,-6 0.204976,-0.608515 0.423587,-1.20351 0.625,-1.8125 0.09429,-0.285019 0.185531,-0.559681 0.28125,-0.84375 0.08479,-0.251291 0.110916,-0.701955 0.4375,-0.625 z m 14.875,0.1875 c -0.287865,0.146786 -0.238803,0.395457 -0.1875,0.65625 0.03563,0.179562 0.459689,0.203922 0.625,0.25 0.04655,-0.22944 0.07892,-0.45806 0.125,-0.6875 0.0086,-0.04275 -0.489346,-0.195473 -0.5625,-0.21875 z m -1.40625,0.09375 c -0.05143,0.01343 -0.103997,0.04874 -0.15625,0.09375 -0.06555,0.218514 -0.155365,0.411711 -0.0625,0.625 0.06389,0.146785 0.429967,0.254684 0.5625,0.125 0.317975,-0.309661 0.01625,-0.937746 -0.34375,-0.84375 z M 31.59375,36.8125 c 0.470281,0.199988 0.897798,0.552081 1.3125,0.84375 0.362211,0.254617 0.771477,0.543122 0.9375,0.96875 0.403777,1.035568 0.672534,2.069853 0.90625,3.15625 0.221364,1.028917 0.453309,2.068633 0.6875,3.09375 0.232053,1.015618 0.272426,2.067682 0.4375,3.09375 0.08265,0.514934 0.156148,1.041865 0.1875,1.5625 0.01734,0.285018 0.04268,0.562532 0.09375,0.84375 0.0456,0.249392 0.01741,0.502509 0.0625,0.75 0.197137,1.081646 0.271512,2.182027 0.28125,3.28125 0.0026,0.318271 0.0358,1.277211 -0.5625,1.0625 -0.315658,-0.11401 -0.46651,-0.145152 -0.5,-0.5 C 35.40852,54.661879 35.38592,54.370795 35.375,54.0625 35.3674,53.846361 35.25665,53.62239 35.25,53.40625 35.241,53.117431 35.264567,52.847519 35.21875,52.5625 35.13253,52.026665 35.097381,51.471435 35,50.9375 34.820675,49.953235 34.797911,48.956815 34.625,47.96875 34.441163,46.916556 34.213764,45.858044 34,44.8125 33.590048,42.807393 33.06349,40.729624 32.25,38.84375 32.078513,38.446624 31.239851,37.194425 31.59375,36.8125 z m 11.25,0.125 c -0.02209,0.183363 -0.04017,0.378663 -0.0625,0.5625 l 0.5625,0.0625 C 43.35275,37.46654 43.430345,37.06603 43.375,37 43.31942,36.93397 42.939469,36.947 42.84375,36.9375 z M 31.1875,37.78125 c 0.04306,-0.01499 0.0828,-0.01295 0.15625,0 0.26008,0.346298 0.440077,0.873674 0.59375,1.28125 0.203551,0.539161 0.430339,1.072064 0.59375,1.625 0.287394,0.97239 0.573186,1.942784 0.78125,2.9375 0.211151,1.009916 0.416224,2.020859 0.625,3.03125 0.217089,1.050295 0.283725,2.103106 0.46875,3.15625 0.146785,0.83653 0.192214,1.668695 0.34375,2.5 0.07529,0.412327 0.01751,0.862272 0.09375,1.28125 0.07102,0.390475 0.05918,0.7918 0.0625,1.1875 -0.209489,-0.01283 -0.384737,-0.01803 -0.59375,0 -0.0024,-0.252717 -0.09402,-0.474584 -0.15625,-0.71875 -0.350335,0.179562 -0.352232,0.127175 -0.4375,-0.25 -0.0551,-0.243691 -0.09093,-0.477434 -0.15625,-0.71875 -0.09477,0.154861 -0.225536,0.283962 -0.25,0.46875 C 33.143626,53.381038 33.18024,53.070341 33.15625,52.84375 33.12656,52.561107 33.045636,52.286444 33.0625,52 c -0.483107,0.311146 -0.348026,1.106843 -0.34375,1.59375 -0.247729,-0.266968 -0.145799,-0.880528 -0.15625,-1.21875 -0.01568,-0.501633 -0.120724,-0.968541 -0.125,-1.46875 -0.139184,0.109258 -0.274871,0.203513 -0.34375,0.375 C 31.948628,51.124964 31.952226,50.824513 31.9375,50.625 31.91778,50.356608 31.792651,50.114518 31.78125,49.84375 31.77225,49.621436 31.958673,49.404115 32,49.1875 c 0.05605,-0.292144 0.112784,-0.580956 0.15625,-0.875 0.07482,-0.508284 -0.05212,-1.054217 0.03125,-1.5625 0.08788,-0.53441 0.0985,-1.021439 0.09375,-1.5625 -0.0048,-0.557687 0.0287,-1.135514 -0.0625,-1.6875 -0.0456,-0.275043 -0.04923,-1.4716 -0.34375,-1.46875 -0.34226,0.0029 -0.216952,1.172433 -0.1875,1.4375 0.02233,0.201413 0.07821,0.49379 -0.09375,0.65625 -0.07434,0.06936 -0.155231,0.07855 -0.25,0.09375 -0.09999,0.01615 -0.06321,0.287595 -0.0625,0.375 0.0014,0.158186 -0.0011,0.310565 0,0.46875 -0.173624,-0.04798 -0.319828,-0.118043 -0.46875,-0.21875 -0.0323,0.204264 -0.09269,0.389487 -0.125,0.59375 -0.122558,-0.08076 -0.246267,-0.147496 -0.375,-0.21875 -0.0513,0.282168 -0.112989,0.555407 -0.09375,0.84375 -0.139422,-0.07838 -0.174945,-0.243891 -0.25,-0.375 -0.02422,0.02422 -0.292278,0.389251 -0.25,0.375 -0.15201,0.05225 -0.282844,-0.159269 -0.375,-0.25 -0.09643,0.308771 -0.08371,0.720615 0.25,0.875 -0.0014,-0.162461 0.0014,-0.337539 0,-0.5 0.212814,0.259367 0.122181,0.635584 0.40625,0.875 0.203788,0.171011 0.2159,0.03498 0.21875,0.34375 0.0021,0.239891 -0.0022,0.478859 0,0.71875 0.16151,-0.08218 0.338727,-0.16782 0.5,-0.25 0.0026,0.283593 -0.0024,0.559681 0,0.84375 0.169824,-0.07221 0.268355,-0.202665 0.375,-0.34375 C 31.804396,49.443821 30.5831,50.354872 30,51.15625 29.890505,50.988089 29.99538,50.780437 30.03125,50.59375 30.0987,50.244602 30.120187,50.107122 30,49.78125 29.816875,49.283892 29.412565,48.945172 29,48.625 c -0.192863,0.618966 0.711933,0.978212 0.40625,1.5625 -0.137047,-0.191437 -0.122862,-0.360034 -0.125,-0.59375 -0.118995,0.0608 -0.236291,0.142576 -0.375,0.125 0.06555,0.244641 0.02539,0.470784 0,0.71875 -0.245353,-0.293095 -0.128154,-0.825526 -0.25,-1.1875 -0.299507,0.386675 -0.222787,0.85267 -0.21875,1.3125 -0.18835,-0.220415 -0.09925,-0.971125 -0.375,-0.96875 -0.232765,0.0019 -0.134501,0.464812 -0.125,0.65625 0.01211,0.235615 -0.004,0.45141 0,0.6875 -0.270055,-0.321596 -0.07841,-0.832483 -0.5,-1.09375 2.37e-4,0.207113 0.0017,0.437837 -0.09375,0.625 -0.122558,-0.08076 -0.246504,-0.179221 -0.375,-0.25 -0.05867,0.120183 -0.144714,0.236766 -0.125,0.375 C 26.562769,50.55717 26.450463,50.443813 26.25,50.25 c -0.181699,-0.175286 -0.01137,-0.527312 0.0625,-0.71875 0.204501,-0.529185 0.500608,-1.053267 0.75,-1.5625 0.475031,-0.971914 0.888772,-1.942785 1.3125,-2.9375 0.863606,-2.027434 1.723732,-4.079311 2.375,-6.1875 0.07149,-0.230865 0.137045,-0.459485 0.21875,-0.6875 0.06145,-0.171011 0.08956,-0.330043 0.21875,-0.375 z M 45.25,38.5 c -0.05985,0.0437 -0.288309,0.298045 -0.15625,0.375 0.112107,0.06555 0.412018,0.339204 0.53125,0.28125 0.07315,-0.03563 0.186652,-0.42352 0.15625,-0.5 C 45.69432,38.438211 45.436212,38.498099 45.25,38.5 z m 7.5,0.0625 c 0.995192,1.276409 0.331128,3.027981 0.28125,4.46875 -0.02471,0.715397 -0.247691,1.483503 -0.375,2.1875 -0.06936,0.383825 -0.122792,0.74735 -0.21875,1.125 -0.06793,0.268868 -3.1e-5,0.372625 -0.28125,0.375 -0.15011,9.73e-4 -0.255598,0.09372 -0.28125,0.25 -0.15961,-0.175286 -0.189196,-0.498335 -0.25,-0.71875 -0.05178,0.08931 -0.274293,0.207655 -0.375,0.125 -0.0494,-0.04038 10e-4,-0.424945 0,-0.5 -0.112107,0.05748 -0.3731,0.243116 -0.375,0.03125 -9.72e-4,-0.171962 0.0013,-0.300114 0.03125,-0.46875 0.05985,-0.340123 0.133821,-0.690652 0.1875,-1.03125 0.108782,-0.68737 0.25397,-1.372754 0.34375,-2.0625 0.09358,-0.716347 0.236766,-1.417204 0.375,-2.125 0.123983,-0.638442 0.349412,-1.302352 0.9375,-1.65625 z m -17.96875,0.65625 c 0.418028,0.23229 0.793564,0.566229 1.15625,0.875 0.400452,0.341072 2.583943,3.318468 2.6875,3.8125 0.223977,1.067871 0.442962,2.14898 0.65625,3.21875 0.192388,0.963363 0.396172,2.018586 0.4375,3 0.04418,1.044119 0.373948,2.050106 0.40625,3.09375 0.0171,0.549612 0.112887,1.073014 0.125,1.625 0.0033,0.15011 -0.0012,0.318642 0,0.46875 0.0019,0.208062 -0.006,0.121948 -0.1875,0.1875 -0.270768,0.09833 -0.561581,0.0909 -0.84375,0.09375 -0.522059,0.0049 -1.040678,-0.0048 -1.5625,0 -0.137522,9.73e-4 -0.608644,-0.0031 -0.6875,-0.09375 -0.106169,-0.12208 0.0014,-0.800589 0,-0.96875 -0.009,-1.034143 -0.17223,-2.039283 -0.28125,-3.0625 -0.05914,-0.553886 -0.06277,-1.099989 -0.125,-1.65625 -0.05653,-0.50067 -0.187533,-1.000742 -0.25,-1.5 -0.126833,-1.013242 -0.282165,-2.020383 -0.4375,-3.03125 -0.157948,-1.027968 -0.380596,-2.051159 -0.625,-3.0625 -0.129209,-0.534886 -0.248879,-1.057439 -0.375,-1.59375 -0.07078,-0.300694 -0.33985,-1.019406 -0.15625,-1.3125 0.019,-0.02992 0.04373,-0.06335 0.0625,-0.09375 z m -6.5625,0.375 c -0.08281,-0.0224 -0.240991,0.05242 -0.28125,0.09375 -0.08859,0.09026 -0.09304,0.321117 -0.09375,0.4375 0.363161,-0.02233 0.508993,-0.10488 0.4375,-0.46875 -0.0062,-0.03159 -0.0349,-0.05503 -0.0625,-0.0625 z m 22.875,1.53125 c -0.03753,1.081646 -0.364141,2.176429 -0.5,3.25 -0.06841,0.539636 -0.164494,1.056015 -0.25,1.59375 -0.08408,0.535361 -0.07118,1.129068 -0.3125,1.625 -0.408052,-0.275993 -0.121675,-1.063548 -0.125,-1.46875 -0.0043,-0.596639 0.09724,-1.190786 0.1875,-1.78125 0.14631,-0.956713 0.04091,-2.633037 1,-3.21875 z M 39.0625,42.8125 c 0.820378,0.667894 1.769135,1.415028 2,2.5 0.22089,1.039368 0.225161,2.151456 0.4375,3.1875 0.105219,0.512558 0.05798,1.041865 0.0625,1.5625 0.0019,0.219464 0.08591,0.436786 0.09375,0.65625 0.0114,0.317321 0.03318,0.627305 0.09375,0.9375 0.102369,0.52681 0.04865,1.037115 0.15625,1.5625 0.102369,0.499733 0.0606,1.055166 0.0625,1.5625 7.29e-4,0.16436 -0.05582,0.634294 -0.21875,0.6875 -0.213051,0.06983 -0.533487,0.03356 -0.71875,-0.09375 -0.39095,-0.26744 -0.418737,-1.02127 -0.4375,-1.46875 -0.02279,-0.53632 -0.115499,-1.049365 -0.125,-1.59375 -0.0078,-0.452706 -0.102948,-1.01937 -0.1875,-1.46875 C 40.080787,49.77398 39.911511,48.699995 39.75,47.625 39.587302,46.541928 39.334251,45.47887 39.125,44.40625 39.04876,44.014349 38.786982,43.163073 39.0625,42.8125 z M 26.625,43.125 c -0.04395,-0.02009 -0.09576,0.0093 -0.1875,0.0625 -0.09049,0.06698 -0.238329,0.213592 -0.1875,0.34375 0.06175,0.158661 0.310802,0.101248 0.46875,0.125 -0.0013,-0.156404 0.03808,-0.470973 -0.09375,-0.53125 z m 22.90625,1.1875 c 0.0038,0.423728 0.0059,0.831972 -0.0625,1.25 -0.05035,0.30687 -0.04753,0.703785 -0.28125,0.9375 -0.257467,-0.396176 -0.334658,-0.661844 -0.21875,-1.125 0.09026,-0.358173 0.276057,-0.814059 0.5625,-1.0625 z M 41.625,45.34375 c 0.385251,0.3634 1.281725,0.967761 1.28125,1.5625 -2.38e-4,0.561012 -0.231379,1.549164 0.59375,1.71875 0.02589,-0.220414 0.148107,-0.431187 0.25,-0.625 0.170774,-0.324921 0.27212,-0.17861 0.53125,0 0.182887,0.125883 0.300318,0.523512 0.40625,0.71875 0.09073,0.167211 0.03305,0.577461 0.0625,0.78125 0.158185,1.082596 0.130394,2.163128 0.21875,3.25 0.04418,0.549136 0.1667,1.038438 0.15625,1.59375 -0.0052,0.293569 -0.04625,0.554456 -0.09375,0.84375 -0.05415,0.328721 -0.22153,0.205927 -0.53125,0.21875 -0.472893,0.02043 -1.075695,0.23008 -1.53125,0.09375 -0.315896,-0.09501 -0.464508,-0.112472 -0.53125,-0.46875 -0.04727,-0.251291 -0.119774,-0.494433 -0.125,-0.75 -0.01472,-0.738199 -0.04486,-1.521302 -0.15625,-2.25 -0.120184,-0.781901 -0.06033,-1.6026 -0.21875,-2.375 C 41.85959,49.276225 41.93571,48.885725 41.90625,48.5 41.87561,48.101923 41.771376,47.712477 41.75,47.3125 41.72245,46.794716 41.270627,45.794555 41.625,45.34375 z m -23.84375,1.375 c 0.491182,-0.03848 1.091506,0.218817 1.5625,0.34375 0.788314,0.209489 1.548751,0.618177 2.28125,0.96875 0.398076,0.190012 0.77575,0.397935 1.15625,0.625 0.246067,0.14726 0.707145,0.308154 0.78125,0.625 0.168161,-0.08598 0.192079,-0.154386 0.3125,0 0.05772,0.07411 0.14702,0.09545 0.21875,0.15625 0.162223,0.136809 0.185362,0.0068 0.1875,0.25 0.0021,0.236566 -0.05086,0.191571 -0.28125,0.25 -0.530135,0.134434 -0.996705,0.312261 -1.5,0.53125 -0.964314,0.419453 -1.793491,1.051265 -2.6875,1.59375 -0.92251,0.559587 -1.671377,1.284399 -2.40625,2.0625 -0.787602,0.833205 -1.305642,1.729154 -1.8125,2.75 -1.915326,3.857727 -2.965959,8.050115 -3.96875,12.21875 -0.319696,1.328188 -0.834554,2.667907 -0.96875,4.03125 -0.140135,1.422239 -0.468883,2.842007 -0.71875,4.25 C 9.604033,77.058625 9.498508,76.42468 9.375,76 9.2424663,75.54397 9.1882807,75.028031 9.09375,74.5625 8.8830733,73.521234 8.7103367,72.514768 8.53125,71.46875 8.4457443,70.968065 8.3914906,70.47513 8.34375,69.96875 8.291734,69.412962 8.1589647,68.870185 8.125,68.3125 8.092698,67.772862 8.0070234,67.266935 8.03125,66.71875 c 0.022089,-0.501633 0.2343907,-1.017372 0.375,-1.5 C 8.6475659,64.391718 9.0070213,63.607329 9.25,62.78125 9.4231488,62.19221 9.7241182,60.788888 8.875,60.625 8.5937813,60.57037 8.4506654,61.42274 8.40625,61.59375 c -0.1099697,0.42468 -0.066301,0.90672 -0.0625,1.34375 0.00356,0.422777 0.095716,0.770424 0,1.1875 C 8.258244,64.496002 8.1650734,64.873879 8,65.21875 7.7130811,64.882426 7.8536236,64.180752 7.875,63.78125 7.899464,63.322846 7.84779,62.865131 7.84375,62.40625 7.833537,61.236726 7.762385,60.04073 7.8125,58.875 c 0.021852,-0.510656 0.00451,-1.020117 0,-1.53125 C 7.80799,56.827864 7.730013,56.243086 7.90625,55.75 c 0.1881125,-0.525858 0.3669578,-0.998638 0.4375,-1.5625 0.063654,-0.507808 0.1141411,-1.005018 0.25,-1.5 0.1384715,-0.504009 0.2625179,-1.031246 0.5625,-1.46875 C 9.4880594,50.735168 9.9256201,50.366724 10.375,50 c 0.818954,-0.668844 1.712363,-1.16992 2.65625,-1.625 1.011104,-0.487857 2.042744,-0.949474 3.09375,-1.34375 0.548662,-0.206164 1.073149,-0.267372 1.65625,-0.3125 z m 7.09375,0.125 c -0.311383,-0.0071 -0.627375,0.122927 -0.625,0.46875 0.364349,0.102607 0.638063,-0.101551 0.625,-0.46875 z m 20.4375,2.25 c 0.850306,0.532035 0.469496,2.333496 0.53125,3.15625 0.04085,0.533935 0.120249,1.022865 0.125,1.5625 0.0029,0.370525 0.165959,1.349044 -0.34375,1.46875 -0.01425,-0.472659 -0.1515,-0.925993 -0.15625,-1.40625 -0.0048,-0.551511 -0.119775,-1.081563 -0.125,-1.625 -0.0057,-0.599489 -0.01717,-1.160961 -0.125,-1.75 -0.06223,-0.342022 -0.136164,-1.10793 0.09375,-1.40625 z m -2.1875,0.375 c -0.117095,0.365774 -0.346805,0.663473 -0.28125,1.0625 0.0665,0.404726 0.193909,0.856066 0.625,1 0.237276,0.07933 0.359799,-1.040818 0.375,-1.15625 0.04964,-0.3767 -0.36794,-0.830245 -0.71875,-0.90625 z m 3.1875,0.71875 c 0.622291,0.285019 0.957008,0.841811 1.21875,1.4375 0.106882,0.243216 -0.143117,0.606235 -0.25,0.84375 -0.168635,0.373375 -0.143834,0.613324 -0.03125,1 0.07743,0.267442 0.219496,0.545533 0.28125,0.8125 0.112582,0.484532 0.406045,-0.168464 0.46875,-0.34375 0.0836,-0.234666 0.268051,-0.627984 0.25,-0.875 -0.01995,-0.280269 -0.170603,-0.698932 -0.125,-0.96875 0.437028,0.246066 0.590288,0.58567 0.78125,1.03125 0.123508,0.287868 0.171652,1.008955 0.09375,1.3125 -0.04703,0.182887 -0.07006,0.567792 -0.21875,0.6875 -0.169112,0.137285 -0.417886,0.154348 -0.625,0.15625 -0.465055,0.0039 -0.911844,0.04837 -1.375,0.03125 -0.108782,-0.0039 -0.436075,0.02501 -0.4375,-0.09375 -0.0024,-0.300218 0.0029,-0.606505 0,-0.90625 -0.0038,-0.493558 -0.0013,-0.976617 -0.03125,-1.46875 -0.02993,-0.500207 -0.120725,-1.000742 -0.125,-1.5 -0.0029,-0.349148 -0.101114,-0.863156 0.125,-1.15625 z M 24.75,50.21875 c 0.1895,0.01282 0.35559,0.08096 0.5,0.15625 -0.219465,0.343923 -0.950764,0.429491 -1.3125,0.5625 -0.507334,0.186688 -1.000606,0.381207 -1.46875,0.65625 -0.961938,0.564337 -1.863694,1.118377 -2.71875,1.84375 -0.749362,0.636067 -1.512889,1.432948 -2.0625,2.25 C 17.078509,56.592438 16.409239,57.47916 16,58.5 c -0.815391,2.034089 -1.575389,4.062687 -2.125,6.1875 -0.140846,0.544862 -0.279077,1.115902 -0.4375,1.65625 -0.06389,0.217567 -0.07014,0.436786 -0.125,0.65625 -0.06389,0.255566 -0.182545,0.495382 -0.25,0.75 -0.278606,1.053617 -0.504884,2.096928 -0.75,3.15625 -0.317559,1.37474 -0.578106,2.748359 -0.875,4.125 -0.141085,0.654592 -0.351655,1.308457 -0.46875,1.96875 -0.11472,0.647942 -0.158454,1.291455 -0.28125,1.9375 -0.8676446,-0.16151 -0.330755,-2.143114 -0.25,-2.6875 0.154147,-1.039369 0.39875,-2.063881 0.59375,-3.09375 0.410189,-2.168042 1.054691,-4.228808 1.5625,-6.375 0.483582,-2.042873 1.020828,-4.155519 1.75,-6.125 0.758388,-2.049284 1.513764,-4.098859 2.8125,-5.875 0.956713,-1.308711 2.287447,-2.149796 3.65625,-2.96875 0.734635,-0.439404 1.457173,-0.924603 2.25,-1.25 0.427885,-0.175642 1.118999,-0.382205 1.6875,-0.34375 z m 6.84375,0.09375 c 0.004,0.44558 -0.0041,0.898171 0,1.34375 -0.224453,-0.267917 -0.211633,-1.069181 0,-1.34375 z m 0.5,1.09375 c 0.0031,0.364824 -0.0033,0.728926 0,1.09375 -0.205451,-0.245591 -0.194051,-0.842459 0,-1.09375 z M 26.375,51.4375 c 0.235378,0.428954 -0.182644,1.03763 -0.65625,0.96875 -0.395226,-0.057 -1.193875,-0.352913 -1.5625,-0.15625 -0.513983,0.274568 -0.529584,0.976178 -0.96875,1.3125 -0.425153,0.325397 -1.105995,-0.08988 -1.5625,0.03125 -0.361261,0.09548 -0.511603,0.0647 -0.65625,0.40625 -0.110682,0.262693 -0.11706,0.531281 -0.15625,0.8125 -0.02898,0.208538 -0.04177,0.513639 -0.15625,0.6875 -0.10902,0.166262 -0.518999,0.270224 -0.71875,0.3125 -0.428715,0.09026 -1.185495,0.16194 -1.4375,0.59375 -0.247728,0.424198 -0.07438,1.0795 -0.0625,1.53125 0.0059,0.222791 0.08985,0.520289 -0.09375,0.6875 -0.213527,0.194286 -0.410184,0.350835 -0.65625,0.5 -0.341785,0.207113 -1.22255,0.650548 -1.21875,1.09375 0.0048,0.56054 0.228657,1.017643 0.3125,1.5625 0.03658,0.239417 0.08653,0.437836 -0.09375,0.625 -0.214002,0.221838 -0.373708,0.416562 -0.625,0.59375 -0.245591,0.173861 -0.434275,0.30181 -0.625,0.53125 -0.1931,0.232291 -0.194253,0.473431 -0.15625,0.78125 0.06603,0.533937 0.323832,1.025713 0.40625,1.5625 0.06769,0.441539 -0.616006,0.915779 -0.90625,1.1875 -0.184787,0.171959 -0.349755,0.338285 -0.46875,0.5625 -0.122796,0.230866 -0.0564,0.477435 0.03125,0.71875 0.156523,0.432277 0.572105,1.124522 0.3125,1.5625 -0.274568,0.46268 -0.772392,0.707923 -1.09375,1.125 -0.375275,0.486432 -0.385589,0.858914 -0.1875,1.4375 0.152247,0.44368 0.509774,1.12157 0.34375,1.59375 -0.174573,0.49688 -0.832889,0.810325 -1.1875,1.1875 -0.318984,0.339174 0.114141,1.127678 0.25,1.46875 0.166498,0.418978 0.46441,1.011024 0.125,1.40625 -0.316846,0.368623 -0.998065,0.64332 -1.15625,1.125 -0.138234,0.42088 0.31769,1.058429 0.46875,1.4375 0.09477,0.23752 0.05228,0.590086 0.0625,0.84375 0.0093,0.225165 -0.336826,0.272598 -0.5,0.3125 -0.04418,-0.192865 0.10386,-0.424541 0.125,-0.625 0.02233,-0.209968 -0.172095,-0.498439 -0.25,-0.6875 -0.110445,-0.267917 -0.724011,-1.192282 -0.5625,-1.46875 0.116857,-0.200459 0.195439,-0.443642 0.375,-0.59375 0.217327,-0.182412 0.533115,-0.385583 0.6875,-0.625 0.222552,-0.346773 0.267543,-0.384122 0.1875,-0.78125 -0.05629,-0.279319 -0.181255,-0.514282 -0.28125,-0.78125 -0.195713,-0.524433 -0.414976,-1.032568 -0.0625,-1.5 0.308058,-0.409473 0.941638,-0.695367 1.125,-1.1875 0.149635,-0.401876 -0.167956,-1.081122 -0.28125,-1.46875 -0.08004,-0.273618 -0.135688,-0.498132 -0.125,-0.78125 0.01164,-0.305922 0.279687,-0.516284 0.46875,-0.75 0.202601,-0.249866 0.992129,-0.711823 0.9375,-1.09375 -0.07601,-0.530133 -0.352097,-1.039965 -0.40625,-1.5625 -0.03373,-0.323969 -0.08365,-0.50298 0.15625,-0.75 0.190488,-0.195711 0.451274,-0.348838 0.65625,-0.53125 0.434891,-0.387628 0.74576,-0.761259 0.59375,-1.375 -0.130396,-0.526334 -0.350094,-1.028092 -0.4375,-1.5625 -0.09263,-0.565765 0.61536,-0.869333 1.03125,-1.15625 0.470044,-0.32445 0.517984,-0.788068 0.375,-1.3125 -0.09263,-0.340599 -0.458133,-1.258003 -0.15625,-1.5625 0.42634,-0.43038 0.837129,-0.732825 1.34375,-1.0625 0.504008,-0.327772 0.62975,-0.661913 0.625,-1.25 -0.0033,-0.413272 -0.138101,-1.380735 0.25,-1.65625 0.412802,-0.292623 1.059883,-0.206163 1.5,-0.4375 0.590226,-0.310199 0.646918,-0.713383 0.75,-1.34375 0.02565,-0.157711 0.109492,-0.580143 0.21875,-0.6875 0.141084,-0.138709 0.595513,-0.137351 0.78125,-0.125 0.460543,0.02992 1.203851,0.182549 1.5625,-0.1875 0.325634,-0.336797 0.531008,-1.083162 0.96875,-1.28125 0.329908,-0.14916 0.911303,0.141897 1.25,0.1875 0.511846,0.06983 0.795837,-0.08512 1.1875,-0.40625 z m 4,0.46875 c 0.207113,0.61564 0.491006,1.232012 0.78125,1.8125 0.345585,0.691646 0.735243,1.335497 0.46875,2.125 -0.461255,1.366193 -0.962333,2.721384 -1.40625,4.09375 C 29.812361,59.8539 29.701684,59.429597 29.5625,59.09375 29.407402,58.719426 29.196696,58.383357 29.0625,58 28.927828,57.614756 28.823801,57.264906 28.625,56.90625 c -0.192863,-0.346773 -0.400381,-0.654924 -0.3125,-1.0625 0.08479,-0.394278 0.155334,-0.789424 0.21875,-1.1875 0.05653,-0.354848 0.425724,-0.772731 0.625,-1.0625 0.373137,-0.542486 0.31334,-1.658523 1.21875,-1.6875 z m -3.28125,0.25 c 0.105457,0.227064 0.243112,0.493484 0.25,0.75 -0.142509,-0.0228 -0.263503,-0.07284 -0.40625,-0.09375 -0.175523,-0.0247 -0.3106,0.01343 -0.3125,-0.1875 -0.0021,-0.259367 0.221259,-0.45925 0.46875,-0.46875 z m 16.375,0.125 c -0.0771,0.0014 -0.130631,0.05364 -0.21875,0.15625 -0.111394,0.129683 -0.24464,0.422739 -0.21875,0.59375 0.06532,0.434178 0.289732,0.782299 0.375,1.1875 0.31447,-0.0029 0.294753,0.04669 0.4375,-0.1875 0.09073,-0.148685 0.139522,-0.333739 0.1875,-0.5 0.10712,-0.374325 0.153166,-0.947236 -0.28125,-1.15625 -0.113652,-0.05463 -0.204147,-0.09517 -0.28125,-0.09375 z M 25,52.65625 c 0.246185,0.01734 0.49474,0.06735 0.65625,0.25 -0.186212,0.127783 -0.409574,0.244095 -0.625,0.3125 C 24.730555,53.31423 24.713831,53.309721 24.625,53 c -0.08337,-0.289769 -0.368452,-0.296993 -0.34375,0.03125 0.01639,0.215664 0.22601,0.422841 0.03125,0.5625 -0.887359,0.637017 -1.515094,1.393993 -2.1875,2.25 -1.386617,1.764741 -2.3849,3.728744 -3.34375,5.75 -1.886825,3.976013 -2.848761,8.249522 -4,12.46875 -0.43109,1.579003 -0.683969,3.232444 -0.96875,4.84375 -0.14536,0.822756 -0.332349,1.663945 -0.34375,2.5 -0.0052,0.386674 -0.08876,0.740228 -0.09375,1.125 -0.0052,0.365773 -0.165005,0.910825 -0.09375,1.25 -0.252479,-0.03517 -0.336658,-0.294788 -0.40625,-0.5 -0.09121,-0.269819 -0.323865,-0.343037 -0.46875,-0.5625 -0.416365,-0.631793 0.408694,-0.810561 0.3125,-1.40625 -0.07957,-0.491185 -0.468783,-0.941568 -0.53125,-1.4375 -0.02755,-0.218515 -0.16911,-0.571392 0,-0.75 0.232765,-0.24702 0.44252,-0.427387 0.71875,-0.625 0.233716,-0.166258 0.372827,-0.383686 0.53125,-0.625 0.126358,-0.191912 -0.05114,-0.525884 -0.125,-0.71875 -0.171723,-0.447478 -0.491925,-0.98422 -0.5,-1.46875 -0.0088,-0.519685 0.471292,-0.795225 0.78125,-1.15625 0.159136,-0.185263 0.452939,-0.367531 0.4375,-0.625 -0.01544,-0.257463 -0.05731,-0.502031 -0.125,-0.75 -0.171724,-0.62989 -0.266761,-1.099207 -0.28125,-1.75 -0.0057,-0.251767 0.919176,-0.946387 1.09375,-1.125 0.10902,-0.112108 0.371777,-0.406686 0.34375,-0.5625 -0.05391,-0.300216 -0.08157,-0.58998 -0.1875,-0.875 -0.227777,-0.613741 -0.313962,-0.948012 0.0625,-1.5 0.118996,-0.174809 0.337777,-0.33289 0.5,-0.46875 0.258892,-0.217562 0.432375,-0.408181 0.625,-0.6875 0.202601,-0.294282 -0.181494,-1.202529 -0.28125,-1.53125 -0.169111,-0.557213 -0.287023,-0.956122 0.25,-1.34375 0.233952,-0.168637 1.161,-0.640506 1.15625,-0.96875 -0.0078,-0.545811 -0.260145,-1.026666 -0.34375,-1.5625 -0.102844,-0.658867 0.124351,-0.969155 0.6875,-1.28125 0.415415,-0.230389 1.028737,-0.520795 1.21875,-0.96875 0.06912,-0.162935 0.0017,-0.446387 0,-0.625 -0.0026,-0.311618 0.0026,-0.625401 0,-0.9375 -0.0052,-0.596162 0.637618,-0.769542 1.125,-0.875 0.391663,-0.08503 1.122896,-0.237543 1.1875,-0.71875 0.03492,-0.262221 0.03736,-0.530908 0.125,-0.78125 0.150111,-0.428003 0.138534,-0.480591 0.5625,-0.625 0.539872,-0.184312 1.104366,0.162971 1.625,-0.15625 0.284069,-0.173862 0.595817,-1.101248 0.90625,-1.125 0.214002,-0.01687 0.472565,-0.04859 0.71875,-0.03125 z m 1.375,0.5 C 26.816779,53.1857 27.527958,53.494567 27.59375,54 27.031313,53.852741 26.571701,53.73439 26,53.875 c -0.519921,0.128258 -0.994398,0.383852 -1.40625,0.71875 -0.905647,0.73535 -1.583056,1.612912 -2.25,2.5625 -0.626091,0.891635 -1.081531,1.809335 -1.5625,2.78125 -0.473131,0.956238 -1.008649,1.883131 -1.40625,2.875 -0.792827,1.975176 -1.598223,3.982914 -2.1875,6.03125 -0.596876,2.073986 -1.06572,4.173063 -1.53125,6.28125 -0.173625,0.785704 -0.345955,1.611999 -0.46875,2.40625 -0.131821,0.855055 -0.19269,1.709347 -0.34375,2.5625 -0.301407,1.700615 -0.233714,3.404441 -0.21875,5.125 -1.014904,-0.518731 -1.039496,-1.767636 -0.90625,-2.75 0.07125,-0.527287 0.03712,-1.061715 0.125,-1.59375 0.0798,-0.483582 0.11862,-0.979468 0.1875,-1.46875 0.145122,-1.03272 0.299095,-2.050687 0.5625,-3.0625 0.260792,-1.003266 0.338319,-2.034634 0.625,-3.03125 0.593552,-2.062584 1.130457,-4.142015 1.78125,-6.1875 0.662669,-2.082299 1.335258,-4.210522 2.34375,-6.15625 0.971439,-1.875424 1.919131,-3.697019 3.34375,-5.28125 0.71991,-0.800903 1.50023,-1.437358 2.375,-2.0625 0.358411,-0.256042 0.861696,-0.498202 1.3125,-0.46875 z M 26.25,54.125 c 0.361124,-0.05307 0.664761,0.0085 0.75,0.34375 -0.785939,0.02375 -1.661199,0.757019 -2.25,1.21875 -0.324685,0.254141 -0.633717,0.502407 -0.9375,0.78125 -0.264355,0.242262 -0.570064,0.642273 -0.9375,0.71875 0.06959,-0.442726 0.394745,-0.864851 0.65625,-1.21875 0.31637,-0.42753 0.652921,-0.822882 1.09375,-1.125 0.256814,-0.176058 1.023127,-0.630299 1.625,-0.71875 z m -4.125,0.40625 C 21.895323,54.648583 21.70304,54.720206 21.65625,55 c 0.351285,0.197137 0.672301,-0.120552 0.46875,-0.46875 z m 4.5,0.375 c 0.09227,-0.0074 0.202336,-0.0046 0.28125,0.03125 0.376937,0.171962 0.690353,0.40947 0.46875,0.875 -0.292619,0.0024 -0.748233,-0.06776 -1,0.09375 -0.384775,0.247015 -0.771101,0.492431 -1.125,0.78125 -0.508996,0.414226 -1.51313,1.019504 -1.625,1.71875 0.208064,-0.0072 0.649635,0.352908 0.5,0.59375 -0.15771,0.253665 -0.888131,0.01249 -1,-0.1875 -0.05748,-0.102137 -0.345989,-0.452294 -0.3125,-0.5625 0.06888,-0.22659 0.136603,-0.407534 0.28125,-0.59375 0.247491,-0.318267 0.524868,-0.592354 0.8125,-0.875 0.581676,-0.572409 1.232554,-1.148269 1.9375,-1.5625 0.208776,-0.122557 0.504437,-0.290278 0.78125,-0.3125 z m 0.03125,1.1875 c 0.548424,-0.0798 1.021949,0.137821 1.40625,0.5625 0.35651,0.394273 0.573288,1.041491 0.75,1.53125 0.169586,0.469806 0.390403,0.927421 0.53125,1.40625 0.151297,0.512564 0.386673,1.070743 0.21875,1.59375 -0.169349,0.526339 -0.380122,1.035318 -0.625,1.53125 -0.715635,1.44932 -1.474241,2.860092 -2.1875,4.3125 -0.154861,0.315417 -0.294074,0.651531 -0.5,0.9375 -0.247966,0.343922 -0.676537,0.442895 -1.0625,0.53125 -0.427053,0.09786 -0.755359,0.02698 -1,-0.40625 -0.191675,-0.33917 -0.40082,-0.672021 -0.46875,-1.0625 0.320883,0.06365 0.682679,0.528504 1,0.5 0.443679,-0.03989 0.938178,-0.232419 1.09375,-0.6875 0.131821,-0.385726 0.356847,-0.820912 0.40625,-1.21875 0.05558,-0.448904 -0.169754,-0.896372 -0.3125,-1.3125 -0.299983,-0.87406 -0.515368,-1.782195 -0.8125,-2.65625 -0.282644,-0.833205 -0.632717,-1.77785 0,-2.53125 -0.203075,-0.0703 -0.337539,-0.175691 -0.5,-0.3125 -0.12232,-0.102608 -0.292889,-0.623062 -0.28125,-0.78125 0.02827,-0.387146 0.656757,-0.899836 0.9375,-1.125 0.423491,-0.340123 0.852838,-0.732219 1.40625,-0.8125 z m -7,1.125 c -0.199988,0.139182 0.03814,0.516085 0.25,0.375 0.247491,-0.164837 -0.07353,-0.465734 -0.25,-0.375 z m 5.3125,0.4375 c 0.02328,0.300221 0.03155,0.616147 0.375,0.71875 -0.0048,-0.255567 -0.10376,-0.628016 -0.375,-0.71875 z M 43.5625,58.8125 c -0.341785,0.02281 -0.455653,0.726006 -0.40625,0.96875 0.08194,0.403301 0.221969,0.904046 0.6875,1 0.170298,-0.246067 0.356916,-0.694554 0.3125,-1 C 44.11136,59.474385 44.041569,58.781145 43.5625,58.8125 z M 22,58.96875 c 0.239871,-0.02332 0.583379,0.377798 0.6875,0.5 0.217564,0.254618 0.250168,0.555779 0.34375,0.875 0.15771,-0.13586 0.331364,-0.254818 0.5,-0.375 0.305682,0.56196 0.142101,1.535859 0.125,2.15625 -0.0093,0.345352 -0.04397,0.688277 -0.0625,1.03125 -0.01876,0.34345 0.0024,0.776902 -0.15625,1.09375 -0.34321,-0.312572 -0.159575,-0.970274 -0.15625,-1.375 0.0048,-0.554839 0.005,-1.13219 0,-1.6875 -0.401402,0.258417 -0.492264,1.030766 -0.46875,1.46875 -0.294756,-0.174338 -0.432919,-0.632532 -0.53125,-0.9375 -0.06864,-0.214239 -0.167418,-0.37089 0.0625,-0.46875 0.161748,-0.06888 0.400718,-0.08136 0.5,-0.25 0.06579,-0.111631 -0.167616,-0.432848 -0.3125,-0.40625 -0.192863,0.03517 -0.474076,0.190828 -0.65625,0.1875 -0.206401,-0.0039 -0.315757,-0.06855 -0.40625,-0.25 -0.03824,-0.07696 -0.396918,0.07664 -0.5,0.09375 -0.133484,-0.553886 0.545362,-1.331906 0.9375,-1.625 0.03025,-0.02262 0.05948,-0.02792 0.09375,-0.03125 z m 14.65625,0.0625 c 0.213527,0.990915 -0.09144,2.071108 -0.21875,3.0625 -0.134434,1.044594 -0.330447,2.128283 -0.5625,3.15625 -0.46648,2.063299 -0.726244,4.153316 -1.1875,6.21875 -0.114957,0.514937 -0.203481,1.046615 -0.3125,1.5625 -0.04242,0.200412 -0.07799,0.389008 -0.386502,1.118314 -0.308508,0.729307 -1.222353,1.779052 -1.894748,2.131686 -0.227301,0.116749 -0.483712,0.28549 -0.6875,0.4375 -0.802091,0.598535 -1.885747,0.997691 -2.875,1.125 C 27.563374,77.969157 26.307349,77.626091 25.5625,77 24.711481,76.284604 24.409677,75.257266 24.375,74.1875 c -0.0086,-0.266969 -0.02185,-0.546485 0,-0.8125 0.02066,-0.24987 0.157369,-0.521036 0.25,-0.75 0.211864,-0.524437 0.467934,-1.023916 0.71875,-1.53125 0.472419,-0.954813 0.953376,-1.896329 1.3125,-2.90625 0.27908,-0.782849 0.728078,-1.486146 1.0625,-2.25 0.348198,-0.795915 0.709925,-1.564695 1.09375,-2.34375 0.349149,-0.709218 0.707787,-1.468406 1.09375,-2.15625 0.197613,-0.351525 0.378663,-0.703377 0.5625,-1.0625 0.177424,-0.34725 0.384394,-0.799196 0.84375,-0.8125 -0.07862,0.505432 -0.40126,0.984315 -0.625,1.4375 -0.23419,0.474076 -0.463998,0.926944 -0.6875,1.40625 -0.477407,1.02322 -0.88548,2.075283 -1.375,3.09375 -0.468381,0.974528 -0.857183,2.019533 -1.3125,3 -0.466718,1.003266 -0.924332,2.047631 -1.1875,3.125 -0.253192,1.036519 -0.590393,2.084577 -0.3125,3.15625 0.299033,1.153374 1.185014,1.73239 2.3125,1.90625 1.013005,0.156763 2.21318,-0.510104 2.90625,-1.1875 0.376462,-0.367674 0.771374,-0.754063 0.96875,-1.25 0.209726,-0.527283 0.474924,-1.037114 0.6875,-1.5625 0.388813,-0.960513 0.577155,-2.010981 0.875,-3 0.326346,-1.08307 0.577597,-2.175381 0.8125,-3.28125 0.443205,-2.087052 0.879136,-4.187787 1.28125,-6.28125 0.03539,-0.185262 0.142066,-0.595241 0.28125,-0.71875 0.231103,-0.204263 0.45487,-0.240093 0.71875,-0.375 z M 34.5625,59.25 c 0.256131,0.0023 0.504646,0.03337 0.75,0.03125 -0.03468,1.017513 -0.302863,2.034161 -0.5,3.03125 -0.204977,1.03557 -0.408148,2.088958 -0.625,3.125 -0.435366,2.078499 -0.980484,4.12312 -1.59375,6.15625 -0.321359,1.065024 -0.844321,2.085089 -1.46875,3 -0.537022,0.7857 -1.492221,1.616448 -2.5,1.625 -0.9503,0.0086 -2.427287,-0.517022 -2.4375,-1.6875 -0.0052,-0.585236 -0.03071,-1.144911 0.09375,-1.71875 0.110207,-0.509231 0.231065,-1.031514 0.375,-1.53125 0.294281,-1.023215 0.750132,-2.073587 1.21875,-3.03125 0.508046,-1.039369 0.944622,-2.113215 1.375,-3.1875 0.400927,-0.999462 0.941432,-1.965585 1.40625,-2.9375 0.22944,-0.479783 0.462946,-0.939766 0.71875,-1.40625 0.235141,-0.429903 0.372757,-1.030637 0.84375,-1.21875 0.440354,-0.175285 1.114919,-0.118621 1.59375,-0.1875 0.243335,-0.03468 0.493869,-0.06482 0.75,-0.0625 z m -12.53125,0.21875 c -0.05242,-0.0048 -0.08945,-0.0027 -0.15625,0.03125 -0.189538,0.157234 -0.212575,0.29896 -0.21875,0.53125 -0.0093,0.336796 0.141318,0.346124 0.4375,0.34375 0.319221,-0.0034 0.304436,-0.872303 -0.0625,-0.90625 z m -4,0.84375 c -0.146191,0.01354 -0.303254,0.06573 -0.34375,0.09375 0.176474,0.362927 0.3846,0.44072 0.5625,0.03125 0.05879,-0.135384 -0.07256,-0.138537 -0.21875,-0.125 z M 20.625,61 c 0.274806,0.09026 0.553506,0.176404 0.84375,0.09375 -0.0019,0.329198 -0.197405,0.691264 -0.5,0.84375 -0.0014,-0.162463 0.0014,-0.306763 0,-0.46875 -0.3862,0.240843 -0.26632,1.073524 -0.34375,1.46875 0.239178,0.04514 0.680849,-0.334631 0.6875,0.0625 0.005,0.296894 0.109594,0.623132 0.1875,0.90625 0.189062,-0.251291 0.271578,-0.500029 0.40625,-0.78125 0.117095,-0.243693 0.162457,-0.209351 0.4375,-0.1875 0.159135,0.01328 0.313653,0.01012 0.46875,-0.03125 0.0057,0.644614 0.02721,1.292885 0.03125,1.9375 0.0038,0.626568 -0.130463,1.218607 -0.125,1.84375 0.0055,0.612788 0.02579,1.230958 0.03125,1.84375 0.004,0.470278 -0.152285,1.408286 0.375,1.65625 -0.0071,-0.822756 0.06572,-1.590148 0.09375,-2.40625 0.361499,0.275515 0.246674,0.911573 0.25,1.3125 0.0038,0.425628 -0.08816,1.126184 0.375,1.34375 -0.0033,-0.389525 -0.112924,-1.072029 0.25,-1.34375 0.269104,0.494035 -0.115403,1.398681 0.5,1.6875 -0.0036,-0.409479 -0.09311,-0.98948 0.21875,-1.3125 0.487382,0.894957 -0.14627,2.14335 -0.59375,2.90625 -0.53631,0.913962 -0.981978,1.887141 -1.5,2.8125 -1.040556,1.861172 -1.934913,3.806274 -2.875,5.71875 -0.224215,0.45603 -0.431933,0.903869 -0.6875,1.34375 -0.102132,0.175762 -0.466645,0.271343 -0.53125,0.40625 -0.04465,0.09121 0.123575,0.578138 0.125,0.71875 -0.235378,-0.06936 -0.29472,-0.290036 -0.375,-0.5 -0.608278,0.439881 -1.100703,1.179654 -1.4375,1.84375 0.525622,-0.01902 0.4583,0.612473 0.46875,0.96875 0.193101,-0.103556 0.343817,-0.26364 0.46875,-0.4375 0.232528,-0.323025 0.360576,-0.254005 0.71875,-0.1875 0.209488,0.03896 0.453922,0.205686 0.5,0.4375 0.05558,0.280267 -0.269847,0.341441 -0.5,0.46875 -0.677632,0.375273 -2.367462,0.668112 -2.9375,-0.0625 -0.338222,-0.433231 -0.682512,-0.857012 -0.6875,-1.4375 -0.005,-0.561489 0.005,-1.125063 0,-1.6875 -0.009,-1.02892 0.120927,-2.075283 0.28125,-3.09375 0.152722,-0.968117 0.219698,-1.986491 0.4375,-2.9375 0.03278,-0.14251 -0.0034,-0.284201 0.15625,-0.25 0.119708,0.02563 0.245894,0.01964 0.34375,0.09375 0.267205,0.201412 0.430037,0.253632 0.25,0.59375 -0.217565,0.41138 -0.702394,0.740865 -0.78125,1.21875 0.387626,-0.0039 0.496674,-0.113028 0.5,0.28125 l 0,1.0625 c 0.324922,-0.194763 0.45219,-0.643828 0.59375,-0.96875 0.08289,-0.190963 0.117159,-0.309108 0.34375,-0.1875 0.145834,0.07791 0.337064,0.123946 0.5,0.15625 -0.09809,-0.361973 -0.195609,-0.691975 -0.25,-1.0625 -0.02898,-0.196659 -0.05575,-0.398987 -0.09375,-0.59375 -0.03753,-0.193814 0.03039,-0.202495 0.21875,-0.25 0.214239,-0.0551 0.284675,-0.0772 0.46875,-0.21875 0.216139,-0.167211 -0.07149,-0.278093 -0.21875,-0.375 -0.102606,-0.06745 -0.365803,0.03695 -0.5,0.03125 C 17.007599,76.27265 16.821425,76.168807 16.625,76.09375 16.463252,76.032 16.298861,76.01424 16.125,76 c -0.285256,-0.02281 -0.270054,-0.05873 -0.21875,-0.34375 0.06959,-0.386674 0.257803,-0.590728 0.40625,-0.9375 0.252004,-0.588087 -0.07961,-1.560972 0.375,-2.03125 0.236566,0.434175 0.151738,1.121571 0.15625,1.59375 0.357699,-0.466478 0.348262,-0.993413 0.34375,-1.5625 -0.0038,-0.502582 0.0966,-0.992666 0.09375,-1.5 -0.0012,-0.197613 -0.06511,-1.601453 0.15625,-1.5625 0.22754,0.03989 0.560125,-0.0027 0.5625,0.25 0.0026,0.31352 0.02865,0.62398 0.03125,0.9375 C 18.250952,70.705044 18.400752,70.450459 18.5625,70.25 18.813792,69.939326 18.938548,70.005701 19.34375,70 19.235443,69.626624 19.143018,69.255973 19.0625,68.875 19.02545,68.700191 18.97041,68.518559 18.96875,68.34375 18.967778,68.223091 19.388605,68.29371 19.5,68.25 c 0.182412,-0.07315 0.315894,-0.139487 0.21875,-0.34375 -0.112582,-0.237515 -0.320946,-0.191198 -0.5625,-0.21875 -0.136571,-0.01518 -0.06155,-0.405843 -0.0625,-0.53125 -0.0017,-0.191912 -0.07726,-0.378186 -0.125,-0.5625 -0.216139,0.110206 -0.336081,0.221472 -0.4375,-0.03125 -0.0646,-0.16151 8.5e-4,-0.367838 0.03125,-0.53125 0.06294,-0.334183 0.177861,-0.750506 0.375,-1.03125 0.364111,0.27124 0.2481,1.069725 0.25,1.46875 0.480494,-0.27837 0.379276,-1.120145 0.375,-1.59375 -0.004,-0.472656 -0.147262,-1.315073 0.21875,-1.6875 0.172436,0.316371 0.1269,0.717629 0.125,1.0625 -0.0014,0.330146 -0.01575,0.671279 -0.03125,1 -0.03492,0.747461 -0.03244,1.4778 0.1875,2.1875 0.10997,-0.09596 0.176404,-0.201547 0.3125,-0.25 0.09358,-0.0323 0.144612,0.295196 0.15625,0.375 0.04655,0.318272 0.0284,0.647632 0.03125,0.96875 0.0069,0.803756 -0.0069,1.602499 0,2.40625 0.450567,-0.535834 0.380938,-1.150305 0.375,-1.8125 -0.0057,-0.64604 -0.04856,-1.295258 0.03125,-1.9375 0.163173,-1.311323 0.04289,-2.713039 0.03125,-4.03125 -0.462443,0.550086 -0.395087,1.282331 -0.40625,1.96875 -0.0055,0.349151 0.17668,1.732696 -0.28125,1.8125 l -0.0625,-3.75 c -0.0045,-0.511133 0.0016,-1.089267 0.09375,-1.59375 C 20.35824,61.51395 20.520731,60.965799 20.625,61 z M 8.9375,61.5625 C 8.9318,61.947749 9.009773,62.418328 8.84375,62.78125 8.6145472,62.534235 8.6508187,61.758688 8.9375,61.5625 z m 34.71875,0.09375 c -0.296539,0.110812 -0.499924,0.694759 -0.46875,0.9375 0.05249,0.407576 0.315247,0.780225 0.5625,1.09375 0.538923,-0.267445 0.847348,-1.925791 0.03125,-2.03125 -0.04688,-0.0061 -0.08264,-0.01583 -0.125,0 z m -19.5,0.15625 c 0.156285,0.286917 0.12215,0.653328 0.125,0.96875 0.0019,0.232763 -0.0019,0.454732 0,0.6875 0.0017,0.19001 0.09779,0.528876 -0.125,0.53125 -0.200701,0.0015 -0.123337,-0.161815 -0.125,-0.34375 -0.0026,-0.305918 0.0029,-0.631578 0,-0.9375 -0.0024,-0.298319 -0.06739,-0.657333 0.125,-0.90625 z m -7.15625,2 c -0.23514,0.01187 -0.434513,0.124593 -0.625,0.25 -0.0304,0.215188 0.209452,0.398105 0.375,0.28125 0.170536,-0.12066 0.20891,-0.338861 0.25,-0.53125 z m 5.09375,0.0625 c 0.0048,0.541535 0.0017,1.082516 0,1.625 -0.0017,0.505198 -0.09802,1.020116 -0.09375,1.53125 0.0045,0.500684 -0.0045,0.99932 0,1.5 0.0031,0.370525 0.02815,0.753522 0.03125,1.125 0.0031,0.353422 -0.02631,0.315351 0.34375,0.3125 -0.06793,0 0.09494,-2.848431 0.09375,-3.15625 -0.0019,-0.513035 0.0045,-1.048988 0,-1.5625 -0.0031,-0.370048 0.0031,-0.724174 0,-1.09375 -0.0031,-0.33252 -0.0306,-0.284577 -0.375,-0.28125 z M 21.5,64 c -0.211864,0.406628 -0.141049,1.025542 -0.15625,1.46875 -0.01615,0.472418 -0.06654,0.92837 -0.0625,1.40625 0.0097,1.118225 0.02152,2.225525 0.03125,3.34375 0.507334,-0.119706 0.345888,-1.103926 0.34375,-1.46875 -0.0031,-0.518736 0.09565,-1.008715 0.09375,-1.53125 -0.0021,-0.514933 0.0045,-1.047801 0,-1.5625 -0.0036,-0.417076 0.0035,-0.832923 0,-1.25 C 21.7474,64.101282 21.834899,63.98385 21.5,64 z m 2.65625,0.84375 c 0.257942,0.168159 0.441807,0.38209 0.71875,0.53125 0.34321,0.185262 0.555474,-0.181457 0.75,-0.4375 0.634879,0.388104 0.02651,1.394307 -0.625,1.28125 -0.44843,-0.07791 -1.222587,-0.89712 -0.84375,-1.375 z m -0.59375,0.625 c 0.281456,0.24417 0.54007,0.510583 0.8125,0.75 0.180275,0.157711 0.233135,0.29065 0.46875,0.3125 0.225878,0.02092 0.460198,0.0076 0.6875,0 0.0266,0.706844 -0.752745,0.842227 -1.21875,0.4375 -0.292857,-0.254618 -1.12195,-1.052993 -0.75,-1.5 z m -7.9375,2.1875 c -0.183025,0.0061 -0.383703,0.318502 -0.4375,0.4375 0.127784,0.03799 0.305441,0.113805 0.4375,0.0625 0.102607,-0.03896 0.278231,-0.23914 0.1875,-0.375 -0.05255,-0.07886 -0.126492,-0.127034 -0.1875,-0.125 z m 4.3125,0.5 c -0.211864,1.111575 -0.113938,2.27853 -0.09375,3.40625 0.501396,-0.106407 0.378325,-1.061274 0.375,-1.4375 -0.004,-0.476932 -0.0272,-0.960568 -0.03125,-1.4375 -0.0031,-0.330623 0.120999,-0.549301 -0.25,-0.53125 z M 18.25,68.1875 c 0.0076,0.435128 -0.245144,1.006343 -0.71875,1.09375 0.113057,-0.435128 0.192415,-1.015848 0.71875,-1.09375 z M 17.65625,70.375 C 17.424197,71.343111 17.553953,72.413433 17.5625,73.40625 18.02423,73.335 17.984561,72.239824 18,71.875 c 0.01829,-0.43988 -0.01645,-1.163681 -0.34375,-1.5 z m 1.46875,0.21875 c -0.01259,0.368628 -0.301987,1.474992 0.25,1.59375 -0.04251,-0.514937 0.353765,-1.272627 -0.25,-1.59375 z m 2.4375,0.0625 c -0.3423,0.0087 -0.315881,0.82093 -0.25,1.03125 0.369811,-0.0095 0.855052,-0.771037 0.4375,-1 -0.06478,-0.03539 -0.1386,-0.0325 -0.1875,-0.03125 z M 18.5,70.96875 c -0.354136,0.489282 -0.223737,1.277514 -0.21875,1.84375 0.554125,-0.08931 0.621101,-1.553978 0.21875,-1.84375 z M 14.625,71.5 c -0.214154,0.05642 -0.376781,0.209386 -0.375,0.46875 0.307583,0.0513 0.618824,-0.15808 0.625,-0.46875 -0.07785,-0.0017 -0.178615,-0.01881 -0.25,0 z m 5.875,0.09375 c -0.107651,0.014 -0.19717,0.04957 -0.28125,0.09375 -0.09334,0.523483 0.652855,0.374152 0.96875,0.34375 0.0038,-0.375509 -0.364547,-0.479495 -0.6875,-0.4375 z m 1.5625,0.1875 c -0.251054,0.02374 -0.372388,0.257733 -0.375,0.5 0.191912,0.0551 1.26517,0.08768 0.96875,-0.375 -0.09548,-0.14916 -0.458128,-0.138299 -0.59375,-0.125 z m -0.875,0.375 c -0.342973,0.748653 -0.968815,1.354602 -1.3125,2.09375 0.227303,0.110211 0.483134,0.0409 0.71875,0 0.0038,0.43988 0.04604,0.762821 0.15625,1.1875 0.310908,-0.256515 0.532946,-0.828271 0.59375,-1.21875 0.196901,0.126361 0.384024,0.271438 0.59375,0.375 0.138471,-0.383829 -0.10342,-0.939125 -0.1875,-1.3125 -0.07577,-0.336324 -0.05421,-1.224753 -0.5625,-1.125 z m 2.59375,2.53125 c 0.08337,0.04845 0.199547,0.374051 0.0625,0.375 -0.149635,9.73e-4 -0.288103,-0.001 -0.4375,0 0.114483,-0.151061 0.218239,-0.268593 0.375,-0.375 z M 16.96875,75 c -0.04204,0.244164 -0.116047,1.286376 0.40625,0.875 0.417315,-0.328721 0.03268,-0.894954 -0.40625,-0.875 z m -3.65625,0.625 c 0.02565,0.157711 0.114818,0.765167 0.40625,0.46875 0.329434,-0.335375 -0.151633,-0.432647 -0.40625,-0.46875 z m 9.59375,0.3125 c 0.320171,0.0893 0.57444,0.09849 0.90625,0.09375 0.532747,-0.0076 0.858982,0.688176 1.125,1.0625 0.510896,0.719199 1.664657,1.096294 2.5,1.1875 0.420877,0.04558 0.89186,0.05221 1.3125,0 0.565999,-0.07125 0.899019,0.07477 1.375,0.375 -0.172436,0.92821 1.025719,0.6898 1.125,1.4375 -2.074224,-0.570989 -4.093224,-1.209788 -6,-2.21875 -0.476931,-0.252721 -0.992531,-0.438583 -1.46875,-0.6875 -0.228727,-0.119706 -0.449509,-0.243044 -0.6875,-0.34375 -0.104744,-0.04373 -0.214168,-0.06705 -0.3125,-0.125 -0.192863,-0.114954 -0.244741,-0.0446 -0.1875,-0.3125 0.03159,-0.150113 0.122959,-0.521003 0.3125,-0.46875 z m -0.53125,1.125 c 0.07698,-0.01499 0.168312,-0.01568 0.28125,0 0.309721,0.04276 0.644508,0.268387 0.90625,0.4375 -0.216139,0.175762 -0.609458,0.154147 -0.875,0.21875 -0.250817,0.05985 -0.818269,0.328083 -0.71875,-0.09375 0.07802,-0.330622 0.175318,-0.51752 0.40625,-0.5625 z m 9.09375,0.59375 c 0.144885,0.221366 0.371673,0.164906 0.59375,0.125 -0.06935,0.518736 -0.888031,0.238876 -0.59375,-0.125 z m -0.75,0.125 c -0.09049,0.13586 -0.19934,0.188248 -0.34375,0.25 0.08123,-0.138706 0.203141,-0.189196 0.34375,-0.25 z m -7.75,0.28125 c 0.391994,-0.01835 0.799277,0.0368 1.125,0.1875 0.395226,0.182412 0.706568,0.817823 0.8125,1.21875 0.134909,0.510184 0.18804,0.992973 0.53125,1.40625 0.427765,0.514937 0.662215,0.958167 1.375,0.71875 0.493082,-0.166263 0.806694,-0.634836 1.28125,-0.8125 0.595214,-0.224216 0.942211,-0.359874 1.53125,-0.0625 0.475031,0.239417 0.787764,0.601617 0.96875,1.09375 0.113533,0.307819 0.268085,0.640029 0.3125,0.96875 -0.406273,-0.241325 -0.433867,-0.88623 -0.75,-1.21875 -0.339648,-0.357221 -0.798177,-0.816912 -1.34375,-0.625 -0.544149,0.191912 -0.941432,0.443978 -1.40625,0.78125 -0.494745,0.35817 -0.918696,0.604811 -1.53125,0.40625 -0.219701,-0.07126 -0.361053,-0.387686 -0.5,-0.5625 -0.183124,-0.229917 -0.346396,-0.372184 -0.40625,-0.65625 -0.111394,-0.526339 -0.241719,-1.129169 -0.53125,-1.59375 -0.29737,-0.477881 -0.743039,-0.779042 -1.28125,-0.875 -0.559111,-0.0988 -0.960704,0.289289 -1.46875,0.4375 -0.10332,0.0304 -0.201818,0.07475 -0.3125,0.09375 0.298082,-0.604477 0.940427,-0.87566 1.59375,-0.90625 z m 9.5,0 c 0.03689,-0.01153 0.08696,-0.0171 0.15625,0 0.150347,0.03707 0.265235,0.169041 0.3125,0.3125 -0.402351,0.0646 -0.384501,0.69598 -0.375,1 -0.254855,-0.16436 -0.378394,-0.663882 -0.28125,-0.9375 0.06752,-0.190249 0.07683,-0.340397 0.1875,-0.375 z m -1.375,0.34375 c -0.0014,0.353427 -0.205887,0.7121 -0.59375,0.71875 -0.0038,-0.325871 0.266928,-0.672193 0.59375,-0.71875 z m 0.75,0.21875 c -0.02898,0.350571 -0.0016,0.81664 -0.375,1 -0.09762,-0.317319 -0.131621,-1.090258 0.375,-1 z M 13.125,79.40625 c -0.168161,0.02661 -0.350365,0.03568 -0.5,0.125 0.109257,0.139659 0.203989,0.305645 0.375,0.375 0.08717,-0.151061 0.100537,-0.331841 0.125,-0.5 z m 13.59375,1.4375 c 0.08135,-0.002 0.190044,0.0049 0.28125,0.03125 0.09904,0.504484 -0.904281,0.596231 -1,0.125 0.257942,-0.04917 0.474703,-0.150105 0.71875,-0.15625 z M 20.25,81.4375 c 0.389271,-0.004 0.951561,0.385771 1.25,0.53125 1.40633,0.685942 2.844788,1.329973 4.34375,1.78125 0.708746,0.212814 1.425991,0.381784 2.125,0.625 0.668844,0.231814 1.469321,0.262178 2.09375,0.59375 -0.249629,0.42088 -1.069826,0.111996 -1.4375,0.03125 -0.536311,-0.116861 -1.065991,-0.18889 -1.59375,-0.34375 -1.033431,-0.303072 -2.057571,-0.610475 -3.0625,-1 -1.019179,-0.39618 -2.046985,-0.836516 -3.03125,-1.3125 -0.200226,-0.09595 -1.355121,-0.686887 -0.84375,-0.875 0.04798,-0.0177 0.10064,-0.03068 0.15625,-0.03125 z M 18.5,81.5 c -0.11874,0.0371 -0.262011,0.253359 -0.28125,0.3125 -0.0665,0.203314 0.03322,0.436039 0.15625,0.59375 0.267917,0.04752 0.325257,-0.09019 0.40625,-0.3125 0.09073,-0.248917 -0.04191,-0.371536 -0.1875,-0.5625 C 18.565426,81.494197 18.53958,81.487635 18.5,81.5 z m -1.09375,0.875 c -0.161748,-0.03517 -0.336998,0.28559 -0.375,0.40625 0.144885,0.076 0.327089,0.198902 0.5,0.1875 0.254142,-0.01805 0.229607,-0.162186 0.3125,-0.375 0.05938,-0.152963 -0.35722,-0.200699 -0.4375,-0.21875 z m 13.625,0.53125 C 31.12934,83.019306 31.221261,83.096088 31.25,83.25 31.101791,83.20822 30.83625,83.074409 31.03125,82.90625 z M 19,84.28125 c 0.264978,-0.01086 0.546466,0.121138 0.78125,0.21875 0.454842,0.189061 0.894133,0.392333 1.34375,0.59375 0.358174,0.160556 0.785726,0.24199 1.15625,0.375 0.430378,0.153912 0.852296,0.31009 1.28125,0.46875 0.791402,0.29452 1.61936,0.50848 2.40625,0.8125 0.397601,0.153912 0.81141,0.280838 1.21875,0.40625 0.399501,0.123505 0.816026,0.179289 1.1875,0.375 -0.285731,0.228015 -0.709178,0.11012 -1.03125,0.03125 C 26.918835,87.45799 26.487416,87.384807 26.0625,87.28125 25.236658,87.080787 24.446567,86.777216 23.625,86.5625 22.743818,86.333536 21.878943,86.08537 21.03125,85.75 20.61536,85.585639 20.19965,85.413618 19.8125,85.1875 19.419174,84.958536 18.933125,84.789327 18.75,84.34375 c 0.08266,-0.04442 0.161674,-0.05888 0.25,-0.0625 z m 7.125,0.875 c -0.299437,10e-7 -0.651056,0.104445 -0.9375,0.09375 0.02351,0.733447 1.2465,1.275179 1.8125,0.8125 0.304257,-0.248917 -0.393762,-0.771544 -0.59375,-0.84375 -0.09174,-0.03301 -0.181438,-0.0625 -0.28125,-0.0625 z m -1.75,2.3125 c 0.387625,0.01328 1.082008,0.0055 1.34375,0.34375 -0.0779,0.13301 -0.23249,0.149701 -0.375,0.125 0.189537,0.942462 1.388301,1.516582 1.375,2.53125 -0.567899,-0.02471 -0.97913,-0.911578 -1.28125,-1.3125 -0.377888,-0.501633 -0.845886,-1.092764 -1.0625,-1.6875 z M 27.59375,88.25 c 0.09283,-0.0053 0.280791,0.104215 0.3125,0.15625 -0.106881,0.141562 -0.205176,0.302794 -0.375,0.375 -0.0014,-0.155814 0.0014,-0.313889 0,-0.46875 -2.43e-4,-0.02898 0.03156,-0.06073 0.0625,-0.0625 z"/>
</g>
<use id="lowerhalf" xlink:href="#upperhalf" transform="matrix(-1,0,0,-1,89,131)"/>
<g id="separation">
	<path d="M 51.541992,177.66943 45.911621,174.0542 116.27148,64.457031 121.90234,68.072266 51.541992,177.66943 z" transform="matrix(0.48643203,0,0,0.48643203,3.8368429,6.4761736)"/>
	<use xlink:href="#circle"/>
	<use xlink:href="#circle" transform="translate(-1.5658594,2.4357812)"/>
	<use xlink:href="#circle" transform="translate(-3.1317188,4.8715625)"/>
	<use xlink:href="#circle" transform="translate(-4.6975781,7.3073437)"/>
	<use xlink:href="#circle" transform="translate(-6.2634375,9.743125)"/>
	<use xlink:href="#circle" transform="translate(-7.8292969,12.178906)"/>
	<use xlink:href="#circle" transform="translate(-9.3951563,14.614687)"/>
	<use xlink:href="#circle" transform="translate(-10.961016,17.050469)"/>
	<use xlink:href="#circle" transform="translate(-12.526875,19.48625)"/>
	<use xlink:href="#circle" transform="translate(-14.092734,21.922031)"/>
	<use xlink:href="#circle" transform="translate(-15.658594,24.357812)"/>
	<use xlink:href="#circle" transform="translate(-17.224453,26.793594)"/>
	<use xlink:href="#circle" transform="translate(-18.790313,29.229375)"/>
	<use xlink:href="#circle" transform="translate(-20.356172,31.665156)"/>
	<use xlink:href="#circle" transform="translate(-21.922031,34.100937)"/>
	<use xlink:href="#circle" transform="translate(-23.487891,36.536719)"/>
	<use xlink:href="#circle" transform="translate(-25.05375,38.9725)"/>
	<use xlink:href="#circle" transform="translate(-26.619609,41.408281)"/>
	<use xlink:href="#circle" transform="translate(-28.185469,43.844062)"/>
	<use xlink:href="#circle" transform="translate(-29.751328,46.279844)"/>
	<use xlink:href="#circle" transform="translate(-31.317188,48.715625)"/>
	<use xlink:href="#circle" transform="translate(-32.883047,51.151406)"/>
</g>
</svg>