<?xml version="1.0" encoding="UTF-8" standalone="no"?>
<svg xmlns="http://www.w3.org/2000/svg" xmlns:xlink="http://www.w3.org/1999/xlink" version="1.1" width="89" height="131">
<def>
	<path id="trefle" d="M45.5,65.5 v4 c 0,2.5 1.5,5 3.5,6.5 c -2.5,-0.5 -6.5,-0.5 -9,0 c 2,-0.5 3.5,-4 3.5,-6.5 v-4
		c0,-4 -2.5,-4 -2.5,-7 a3.5,3.5 0,0,1 7,0 c0,3 -2.5,3 -2.5,7z
		m-1,0 c4,0 4,-2.5 7,-2.5 a3.5,3.5 0,0,1 0,7 c-3,0 -3,-2.5 -7,-2.5
		c-4,0 -4,2.5 -7,2.5 a3.5,3.5 0,0,1 0,-7 c3,0 3,2.5 7,2.5z" fill="#000"/>
</def>
<rect x="2" y="2" width="85" height="127" fill="#000"/>
<rect x="3" y="3" width="83" height="125" fill="#fff"/>
<use xlink:href="#trefle" transform="translate(-21,-42)"/>
<use xlink:href="#trefle" transform="translate(-21,42)rotate(180,44.5,65.5)"/>
<use xlink:href="#trefle" transform="translate(21,-42)"/>
<use xlink:href="#trefle" transform="translate(21,42)rotate(180,44.5,65.5)"/>
<use xlink:href="#trefle" transform="translate(0,0)rotate(180,44.5,65.5)"/>
</svg>